# Tiled2Unity generated file. Do not modify by hand.
# Wavefront file for 'mapa1_mesh_0003.obj'

# Vertices (Count = 1116)
v -34 -3 0
v -35 -3 0
v -35 -2 0
v -34 -2 0
v -13 -6 0
v -14 -6 0
v -14 -5 0
v -13 -5 0
v -13 -7 0
v -14 -7 0
v -14 -6 0
v -13 -6 0
v -14 -7 0
v -15 -7 0
v -15 -6 0
v -14 -6 0
v -15 -7 0
v -16 -7 0
v -16 -6 0
v -15 -6 0
v -13 -8 0
v -14 -8 0
v -14 -7 0
v -13 -7 0
v -14 -8 0
v -15 -8 0
v -15 -7 0
v -14 -7 0
v -15 -8 0
v -16 -8 0
v -16 -7 0
v -15 -7 0
v -13 -9 0
v -14 -9 0
v -14 -8 0
v -13 -8 0
v -14 -9 0
v -15 -9 0
v -15 -8 0
v -14 -8 0
v -15 -9 0
v -16 -9 0
v -16 -8 0
v -15 -8 0
v -12 -10 0
v -13 -10 0
v -13 -9 0
v -12 -9 0
v -13 -10 0
v -14 -10 0
v -14 -9 0
v -13 -9 0
v -14 -10 0
v -15 -10 0
v -15 -9 0
v -14 -9 0
v -15 -10 0
v -16 -10 0
v -16 -9 0
v -15 -9 0
v -16 -10 0
v -17 -10 0
v -17 -9 0
v -16 -9 0
v -41 -10 0
v -42 -10 0
v -42 -9 0
v -41 -9 0
v -48 -10 0
v -49 -10 0
v -49 -9 0
v -48 -9 0
v -65 -10 0
v -66 -10 0
v -66 -9 0
v -65 -9 0
v -66 -10 0
v -67 -10 0
v -67 -9 0
v -66 -9 0
v -12 -11 0
v -13 -11 0
v -13 -10 0
v -12 -10 0
v -13 -11 0
v -14 -11 0
v -14 -10 0
v -13 -10 0
v -14 -11 0
v -15 -11 0
v -15 -10 0
v -14 -10 0
v -15 -11 0
v -16 -11 0
v -16 -10 0
v -15 -10 0
v -16 -11 0
v -17 -11 0
v -17 -10 0
v -16 -10 0
v -48 -11 0
v -49 -11 0
v -49 -10 0
v -48 -10 0
v -12 -12 0
v -13 -12 0
v -13 -11 0
v -12 -11 0
v -13 -12 0
v -14 -12 0
v -14 -11 0
v -13 -11 0
v -14 -12 0
v -15 -12 0
v -15 -11 0
v -14 -11 0
v -15 -12 0
v -16 -12 0
v -16 -11 0
v -15 -11 0
v -16 -12 0
v -17 -12 0
v -17 -11 0
v -16 -11 0
v -55 -12 0
v -56 -12 0
v -56 -11 0
v -55 -11 0
v -12 -13 0
v -13 -13 0
v -13 -12 0
v -12 -12 0
v -13 -13 0
v -14 -13 0
v -14 -12 0
v -13 -12 0
v -14 -13 0
v -15 -13 0
v -15 -12 0
v -14 -12 0
v -15 -13 0
v -16 -13 0
v -16 -12 0
v -15 -12 0
v -16 -13 0
v -17 -13 0
v -17 -12 0
v -16 -12 0
v -5 -14 0
v -6 -14 0
v -6 -13 0
v -5 -13 0
v -6 -14 0
v -7 -14 0
v -7 -13 0
v -6 -13 0
v -7 -14 0
v -8 -14 0
v -8 -13 0
v -7 -13 0
v -12 -14 0
v -13 -14 0
v -13 -13 0
v -12 -13 0
v -13 -14 0
v -14 -14 0
v -14 -13 0
v -13 -13 0
v -14 -14 0
v -15 -14 0
v -15 -13 0
v -14 -13 0
v -15 -14 0
v -16 -14 0
v -16 -13 0
v -15 -13 0
v -16 -14 0
v -17 -14 0
v -17 -13 0
v -16 -13 0
v -5 -15 0
v -6 -15 0
v -6 -14 0
v -5 -14 0
v -6 -15 0
v -7 -15 0
v -7 -14 0
v -6 -14 0
v -7 -15 0
v -8 -15 0
v -8 -14 0
v -7 -14 0
v -12 -15 0
v -13 -15 0
v -13 -14 0
v -12 -14 0
v -13 -15 0
v -14 -15 0
v -14 -14 0
v -13 -14 0
v -14 -15 0
v -15 -15 0
v -15 -14 0
v -14 -14 0
v -15 -15 0
v -16 -15 0
v -16 -14 0
v -15 -14 0
v -16 -15 0
v -17 -15 0
v -17 -14 0
v -16 -14 0
v -12 -16 0
v -13 -16 0
v -13 -15 0
v -12 -15 0
v -13 -16 0
v -14 -16 0
v -14 -15 0
v -13 -15 0
v -14 -16 0
v -15 -16 0
v -15 -15 0
v -14 -15 0
v -15 -16 0
v -16 -16 0
v -16 -15 0
v -15 -15 0
v -16 -16 0
v -17 -16 0
v -17 -15 0
v -16 -15 0
v -6 -17 0
v -7 -17 0
v -7 -16 0
v -6 -16 0
v -7 -17 0
v -8 -17 0
v -8 -16 0
v -7 -16 0
v -12 -17 0
v -13 -17 0
v -13 -16 0
v -12 -16 0
v -13 -17 0
v -14 -17 0
v -14 -16 0
v -13 -16 0
v -14 -17 0
v -15 -17 0
v -15 -16 0
v -14 -16 0
v -15 -17 0
v -16 -17 0
v -16 -16 0
v -15 -16 0
v -16 -17 0
v -17 -17 0
v -17 -16 0
v -16 -16 0
v -5 -18 0
v -6 -18 0
v -6 -17 0
v -5 -17 0
v -6 -18 0
v -7 -18 0
v -7 -17 0
v -6 -17 0
v -7 -18 0
v -8 -18 0
v -8 -17 0
v -7 -17 0
v -12 -18 0
v -13 -18 0
v -13 -17 0
v -12 -17 0
v -13 -18 0
v -14 -18 0
v -14 -17 0
v -13 -17 0
v -14 -18 0
v -15 -18 0
v -15 -17 0
v -14 -17 0
v -15 -18 0
v -16 -18 0
v -16 -17 0
v -15 -17 0
v -16 -18 0
v -17 -18 0
v -17 -17 0
v -16 -17 0
v -5 -19 0
v -6 -19 0
v -6 -18 0
v -5 -18 0
v -6 -19 0
v -7 -19 0
v -7 -18 0
v -6 -18 0
v -7 -19 0
v -8 -19 0
v -8 -18 0
v -7 -18 0
v -12 -19 0
v -13 -19 0
v -13 -18 0
v -12 -18 0
v -13 -19 0
v -14 -19 0
v -14 -18 0
v -13 -18 0
v -14 -19 0
v -15 -19 0
v -15 -18 0
v -14 -18 0
v -15 -19 0
v -16 -19 0
v -16 -18 0
v -15 -18 0
v -16 -19 0
v -17 -19 0
v -17 -18 0
v -16 -18 0
v -1 -20 0
v -2 -20 0
v -2 -19 0
v -1 -19 0
v -2 -20 0
v -3 -20 0
v -3 -19 0
v -2 -19 0
v -3 -20 0
v -4 -20 0
v -4 -19 0
v -3 -19 0
v -4 -20 0
v -5 -20 0
v -5 -19 0
v -4 -19 0
v -5 -20 0
v -6 -20 0
v -6 -19 0
v -5 -19 0
v -6 -20 0
v -7 -20 0
v -7 -19 0
v -6 -19 0
v -7 -20 0
v -8 -20 0
v -8 -19 0
v -7 -19 0
v -12 -20 0
v -13 -20 0
v -13 -19 0
v -12 -19 0
v -13 -20 0
v -14 -20 0
v -14 -19 0
v -13 -19 0
v -14 -20 0
v -15 -20 0
v -15 -19 0
v -14 -19 0
v -15 -20 0
v -16 -20 0
v -16 -19 0
v -15 -19 0
v -16 -20 0
v -17 -20 0
v -17 -19 0
v -16 -19 0
v -1 -21 0
v -2 -21 0
v -2 -20 0
v -1 -20 0
v -2 -21 0
v -3 -21 0
v -3 -20 0
v -2 -20 0
v -3 -21 0
v -4 -21 0
v -4 -20 0
v -3 -20 0
v -4 -21 0
v -5 -21 0
v -5 -20 0
v -4 -20 0
v -5 -21 0
v -6 -21 0
v -6 -20 0
v -5 -20 0
v -6 -21 0
v -7 -21 0
v -7 -20 0
v -6 -20 0
v -7 -21 0
v -8 -21 0
v -8 -20 0
v -7 -20 0
v -11 -21 0
v -12 -21 0
v -12 -20 0
v -11 -20 0
v -12 -21 0
v -13 -21 0
v -13 -20 0
v -12 -20 0
v -13 -21 0
v -14 -21 0
v -14 -20 0
v -13 -20 0
v -14 -21 0
v -15 -21 0
v -15 -20 0
v -14 -20 0
v -15 -21 0
v -16 -21 0
v -16 -20 0
v -15 -20 0
v -16 -21 0
v -17 -21 0
v -17 -20 0
v -16 -20 0
v -5 -22 0
v -6 -22 0
v -6 -21 0
v -5 -21 0
v -6 -22 0
v -7 -22 0
v -7 -21 0
v -6 -21 0
v -7 -22 0
v -8 -22 0
v -8 -21 0
v -7 -21 0
v -9 -22 0
v -10 -22 0
v -10 -21 0
v -9 -21 0
v -10 -22 0
v -11 -22 0
v -11 -21 0
v -10 -21 0
v -11 -22 0
v -12 -22 0
v -12 -21 0
v -11 -21 0
v -12 -22 0
v -13 -22 0
v -13 -21 0
v -12 -21 0
v -13 -22 0
v -14 -22 0
v -14 -21 0
v -13 -21 0
v -14 -22 0
v -15 -22 0
v -15 -21 0
v -14 -21 0
v -15 -22 0
v -16 -22 0
v -16 -21 0
v -15 -21 0
v -16 -22 0
v -17 -22 0
v -17 -21 0
v -16 -21 0
v -8 -23 0
v -9 -23 0
v -9 -22 0
v -8 -22 0
v -9 -23 0
v -10 -23 0
v -10 -22 0
v -9 -22 0
v -10 -23 0
v -11 -23 0
v -11 -22 0
v -10 -22 0
v -11 -23 0
v -12 -23 0
v -12 -22 0
v -11 -22 0
v -12 -23 0
v -13 -23 0
v -13 -22 0
v -12 -22 0
v -13 -23 0
v -14 -23 0
v -14 -22 0
v -13 -22 0
v -14 -23 0
v -15 -23 0
v -15 -22 0
v -14 -22 0
v -15 -23 0
v -16 -23 0
v -16 -22 0
v -15 -22 0
v -16 -23 0
v -17 -23 0
v -17 -22 0
v -16 -22 0
v -8 -24 0
v -9 -24 0
v -9 -23 0
v -8 -23 0
v -9 -24 0
v -10 -24 0
v -10 -23 0
v -9 -23 0
v -10 -24 0
v -11 -24 0
v -11 -23 0
v -10 -23 0
v -11 -24 0
v -12 -24 0
v -12 -23 0
v -11 -23 0
v -12 -24 0
v -13 -24 0
v -13 -23 0
v -12 -23 0
v -13 -24 0
v -14 -24 0
v -14 -23 0
v -13 -23 0
v -14 -24 0
v -15 -24 0
v -15 -23 0
v -14 -23 0
v -15 -24 0
v -16 -24 0
v -16 -23 0
v -15 -23 0
v -16 -24 0
v -17 -24 0
v -17 -23 0
v -16 -23 0
v -6 -25 0
v -7 -25 0
v -7 -24 0
v -6 -24 0
v -7 -25 0
v -8 -25 0
v -8 -24 0
v -7 -24 0
v -8 -25 0
v -9 -25 0
v -9 -24 0
v -8 -24 0
v -9 -25 0
v -10 -25 0
v -10 -24 0
v -9 -24 0
v -10 -25 0
v -11 -25 0
v -11 -24 0
v -10 -24 0
v -11 -25 0
v -12 -25 0
v -12 -24 0
v -11 -24 0
v -12 -25 0
v -13 -25 0
v -13 -24 0
v -12 -24 0
v -13 -25 0
v -14 -25 0
v -14 -24 0
v -13 -24 0
v -14 -25 0
v -15 -25 0
v -15 -24 0
v -14 -24 0
v -15 -25 0
v -16 -25 0
v -16 -24 0
v -15 -24 0
v -6 -26 0
v -7 -26 0
v -7 -25 0
v -6 -25 0
v -7 -26 0
v -8 -26 0
v -8 -25 0
v -7 -25 0
v -8 -26 0
v -9 -26 0
v -9 -25 0
v -8 -25 0
v -9 -26 0
v -10 -26 0
v -10 -25 0
v -9 -25 0
v -10 -26 0
v -11 -26 0
v -11 -25 0
v -10 -25 0
v -11 -26 0
v -12 -26 0
v -12 -25 0
v -11 -25 0
v -12 -26 0
v -13 -26 0
v -13 -25 0
v -12 -25 0
v -13 -26 0
v -14 -26 0
v -14 -25 0
v -13 -25 0
v -14 -26 0
v -15 -26 0
v -15 -25 0
v -14 -25 0
v -5 -27 0
v -6 -27 0
v -6 -26 0
v -5 -26 0
v -6 -27 0
v -7 -27 0
v -7 -26 0
v -6 -26 0
v -7 -27 0
v -8 -27 0
v -8 -26 0
v -7 -26 0
v -8 -27 0
v -9 -27 0
v -9 -26 0
v -8 -26 0
v -9 -27 0
v -10 -27 0
v -10 -26 0
v -9 -26 0
v -10 -27 0
v -11 -27 0
v -11 -26 0
v -10 -26 0
v -11 -27 0
v -12 -27 0
v -12 -26 0
v -11 -26 0
v -12 -27 0
v -13 -27 0
v -13 -26 0
v -12 -26 0
v -5 -28 0
v -6 -28 0
v -6 -27 0
v -5 -27 0
v -6 -28 0
v -7 -28 0
v -7 -27 0
v -6 -27 0
v -7 -28 0
v -8 -28 0
v -8 -27 0
v -7 -27 0
v -8 -28 0
v -9 -28 0
v -9 -27 0
v -8 -27 0
v -9 -28 0
v -10 -28 0
v -10 -27 0
v -9 -27 0
v -10 -28 0
v -11 -28 0
v -11 -27 0
v -10 -27 0
v -5 -29 0
v -6 -29 0
v -6 -28 0
v -5 -28 0
v -6 -29 0
v -7 -29 0
v -7 -28 0
v -6 -28 0
v -7 -29 0
v -8 -29 0
v -8 -28 0
v -7 -28 0
v -8 -29 0
v -9 -29 0
v -9 -28 0
v -8 -28 0
v -9 -29 0
v -10 -29 0
v -10 -28 0
v -9 -28 0
v -10 -29 0
v -11 -29 0
v -11 -28 0
v -10 -28 0
v -5 -30 0
v -6 -30 0
v -6 -29 0
v -5 -29 0
v -6 -30 0
v -7 -30 0
v -7 -29 0
v -6 -29 0
v -7 -30 0
v -8 -30 0
v -8 -29 0
v -7 -29 0
v -8 -30 0
v -9 -30 0
v -9 -29 0
v -8 -29 0
v -9 -30 0
v -10 -30 0
v -10 -29 0
v -9 -29 0
v -5 -31 0
v -6 -31 0
v -6 -30 0
v -5 -30 0
v -6 -31 0
v -7 -31 0
v -7 -30 0
v -6 -30 0
v -7 -31 0
v -8 -31 0
v -8 -30 0
v -7 -30 0
v -8 -31 0
v -9 -31 0
v -9 -30 0
v -8 -30 0
v -9 -31 0
v -10 -31 0
v -10 -30 0
v -9 -30 0
v -5 -32 0
v -6 -32 0
v -6 -31 0
v -5 -31 0
v -6 -32 0
v -7 -32 0
v -7 -31 0
v -6 -31 0
v -7 -32 0
v -8 -32 0
v -8 -31 0
v -7 -31 0
v -8 -32 0
v -9 -32 0
v -9 -31 0
v -8 -31 0
v -9 -32 0
v -10 -32 0
v -10 -31 0
v -9 -31 0
v -5 -33 0
v -6 -33 0
v -6 -32 0
v -5 -32 0
v -6 -33 0
v -7 -33 0
v -7 -32 0
v -6 -32 0
v -7 -33 0
v -8 -33 0
v -8 -32 0
v -7 -32 0
v -8 -33 0
v -9 -33 0
v -9 -32 0
v -8 -32 0
v -9 -33 0
v -10 -33 0
v -10 -32 0
v -9 -32 0
v -5 -34 0
v -6 -34 0
v -6 -33 0
v -5 -33 0
v -6 -34 0
v -7 -34 0
v -7 -33 0
v -6 -33 0
v -7 -34 0
v -8 -34 0
v -8 -33 0
v -7 -33 0
v -8 -34 0
v -9 -34 0
v -9 -33 0
v -8 -33 0
v -9 -34 0
v -10 -34 0
v -10 -33 0
v -9 -33 0
v -5 -35 0
v -6 -35 0
v -6 -34 0
v -5 -34 0
v -6 -35 0
v -7 -35 0
v -7 -34 0
v -6 -34 0
v -7 -35 0
v -8 -35 0
v -8 -34 0
v -7 -34 0
v -8 -35 0
v -9 -35 0
v -9 -34 0
v -8 -34 0
v -9 -35 0
v -10 -35 0
v -10 -34 0
v -9 -34 0
v -5 -36 0
v -6 -36 0
v -6 -35 0
v -5 -35 0
v -6 -36 0
v -7 -36 0
v -7 -35 0
v -6 -35 0
v -7 -36 0
v -8 -36 0
v -8 -35 0
v -7 -35 0
v -8 -36 0
v -9 -36 0
v -9 -35 0
v -8 -35 0
v -9 -36 0
v -10 -36 0
v -10 -35 0
v -9 -35 0
v -5 -37 0
v -6 -37 0
v -6 -36 0
v -5 -36 0
v -6 -37 0
v -7 -37 0
v -7 -36 0
v -6 -36 0
v -7 -37 0
v -8 -37 0
v -8 -36 0
v -7 -36 0
v -8 -37 0
v -9 -37 0
v -9 -36 0
v -8 -36 0
v -9 -37 0
v -10 -37 0
v -10 -36 0
v -9 -36 0
v -5 -38 0
v -6 -38 0
v -6 -37 0
v -5 -37 0
v -6 -38 0
v -7 -38 0
v -7 -37 0
v -6 -37 0
v -7 -38 0
v -8 -38 0
v -8 -37 0
v -7 -37 0
v -8 -38 0
v -9 -38 0
v -9 -37 0
v -8 -37 0
v -9 -38 0
v -10 -38 0
v -10 -37 0
v -9 -37 0
v -5 -39 0
v -6 -39 0
v -6 -38 0
v -5 -38 0
v -6 -39 0
v -7 -39 0
v -7 -38 0
v -6 -38 0
v -7 -39 0
v -8 -39 0
v -8 -38 0
v -7 -38 0
v -8 -39 0
v -9 -39 0
v -9 -38 0
v -8 -38 0
v -9 -39 0
v -10 -39 0
v -10 -38 0
v -9 -38 0
v -5 -40 0
v -6 -40 0
v -6 -39 0
v -5 -39 0
v -6 -40 0
v -7 -40 0
v -7 -39 0
v -6 -39 0
v -7 -40 0
v -8 -40 0
v -8 -39 0
v -7 -39 0
v -8 -40 0
v -9 -40 0
v -9 -39 0
v -8 -39 0
v -9 -40 0
v -10 -40 0
v -10 -39 0
v -9 -39 0
v -5 -41 0
v -6 -41 0
v -6 -40 0
v -5 -40 0
v -6 -41 0
v -7 -41 0
v -7 -40 0
v -6 -40 0
v -7 -41 0
v -8 -41 0
v -8 -40 0
v -7 -40 0
v -8 -41 0
v -9 -41 0
v -9 -40 0
v -8 -40 0
v -9 -41 0
v -10 -41 0
v -10 -40 0
v -9 -40 0
v -5 -42 0
v -6 -42 0
v -6 -41 0
v -5 -41 0
v -6 -42 0
v -7 -42 0
v -7 -41 0
v -6 -41 0
v -7 -42 0
v -8 -42 0
v -8 -41 0
v -7 -41 0
v -8 -42 0
v -9 -42 0
v -9 -41 0
v -8 -41 0
v -9 -42 0
v -10 -42 0
v -10 -41 0
v -9 -41 0
v -5 -43 0
v -6 -43 0
v -6 -42 0
v -5 -42 0
v -6 -43 0
v -7 -43 0
v -7 -42 0
v -6 -42 0
v -7 -43 0
v -8 -43 0
v -8 -42 0
v -7 -42 0
v -8 -43 0
v -9 -43 0
v -9 -42 0
v -8 -42 0
v -9 -43 0
v -10 -43 0
v -10 -42 0
v -9 -42 0
v -5 -44 0
v -6 -44 0
v -6 -43 0
v -5 -43 0
v -6 -44 0
v -7 -44 0
v -7 -43 0
v -6 -43 0
v -7 -44 0
v -8 -44 0
v -8 -43 0
v -7 -43 0
v -8 -44 0
v -9 -44 0
v -9 -43 0
v -8 -43 0
v -9 -44 0
v -10 -44 0
v -10 -43 0
v -9 -43 0
v -5 -45 0
v -6 -45 0
v -6 -44 0
v -5 -44 0
v -6 -45 0
v -7 -45 0
v -7 -44 0
v -6 -44 0
v -7 -45 0
v -8 -45 0
v -8 -44 0
v -7 -44 0
v -8 -45 0
v -9 -45 0
v -9 -44 0
v -8 -44 0
v -9 -45 0
v -10 -45 0
v -10 -44 0
v -9 -44 0
v -5 -46 0
v -6 -46 0
v -6 -45 0
v -5 -45 0
v -6 -46 0
v -7 -46 0
v -7 -45 0
v -6 -45 0
v -7 -46 0
v -8 -46 0
v -8 -45 0
v -7 -45 0
v -8 -46 0
v -9 -46 0
v -9 -45 0
v -8 -45 0
v -9 -46 0
v -10 -46 0
v -10 -45 0
v -9 -45 0
v -5 -47 0
v -6 -47 0
v -6 -46 0
v -5 -46 0
v -6 -47 0
v -7 -47 0
v -7 -46 0
v -6 -46 0
v -7 -47 0
v -8 -47 0
v -8 -46 0
v -7 -46 0
v -8 -47 0
v -9 -47 0
v -9 -46 0
v -8 -46 0
v -9 -47 0
v -10 -47 0
v -10 -46 0
v -9 -46 0
v -5 -48 0
v -6 -48 0
v -6 -47 0
v -5 -47 0
v -6 -48 0
v -7 -48 0
v -7 -47 0
v -6 -47 0
v -7 -48 0
v -8 -48 0
v -8 -47 0
v -7 -47 0
v -8 -48 0
v -9 -48 0
v -9 -47 0
v -8 -47 0
v -9 -48 0
v -10 -48 0
v -10 -47 0
v -9 -47 0
v -5 -49 0
v -6 -49 0
v -6 -48 0
v -5 -48 0
v -6 -49 0
v -7 -49 0
v -7 -48 0
v -6 -48 0
v -7 -49 0
v -8 -49 0
v -8 -48 0
v -7 -48 0
v -8 -49 0
v -9 -49 0
v -9 -48 0
v -8 -48 0
v -9 -49 0
v -10 -49 0
v -10 -48 0
v -9 -48 0
v -5 -50 0
v -6 -50 0
v -6 -49 0
v -5 -49 0
v -6 -50 0
v -7 -50 0
v -7 -49 0
v -6 -49 0
v -7 -50 0
v -8 -50 0
v -8 -49 0
v -7 -49 0
v -8 -50 0
v -9 -50 0
v -9 -49 0
v -8 -49 0
v -9 -50 0
v -10 -50 0
v -10 -49 0
v -9 -49 0

# Texture cooridinates (Count = 56)
vt 0.8 0.9722222
vt 0.825 0.9722222
vt 0.825 1
vt 0.8 1
vt 0.425 0.1666667
vt 0.45 0.1666667
vt 0.45 0.1944444
vt 0.425 0.1944444
vt 0.35 0.1388889
vt 0.375 0.1388889
vt 0.375 0.1666667
vt 0.35 0.1666667
vt 0.4 0.1388889
vt 0.425 0.1388889
vt 0.4 0.1666667
vt 0.375 0.1944444
vt 0.35 0.1944444
vt 0.375 0.05555558
vt 0.4 0.05555558
vt 0.4 0.08333331
vt 0.375 0.08333331
vt 0.35 0.05555558
vt 0.35 0.08333331
vt 0.4 0.1944444
vt 0.175 0.5555556
vt 0.2 0.5555556
vt 0.2 0.5833334
vt 0.175 0.5833334
vt 0.85 0.9722222
vt 0.85 1
vt 0.35 0.25
vt 0.375 0.25
vt 0.375 0.2777778
vt 0.35 0.2777778
vt 0.4 0.25
vt 0.4 0.2777778
vt 0.825 0.9444444
vt 0.85 0.9444444
vt 0.325 0.1944444
vt 0.35 0.2222222
vt 0.325 0.2222222
vt 0.425 0.08333331
vt 0.425 0.1111111
vt 0.4 0.1111111
vt 0.45 0.08333331
vt 0.45 0.1111111
vt 0.475 0.08333331
vt 0.475 0.1111111
vt 0.425 0.05555558
vt 0.45 0.05555558
vt 0.475 0.05555558
vt 0.375 0.1111111
vt 0.35 0.1111111
vt 0.45 0.1388889
vt 0.475 0.1388889
vt 0.475 0.1666667

# Normal
vn 0 0 -1

# Mesh description
g mapa1_mesh_0003

# Faces
f 1/1/1 2/2/1 3/3/1 4/4/1
f 5/5/1 6/6/1 7/7/1 8/8/1
f 9/9/1 10/10/1 11/11/1 12/12/1
f 13/5/1 14/6/1 15/7/1 16/8/1
f 17/13/1 18/14/1 19/5/1 20/15/1
f 21/9/1 22/10/1 23/11/1 24/12/1
f 25/5/1 26/6/1 27/7/1 28/8/1
f 29/13/1 30/14/1 31/5/1 32/15/1
f 33/9/1 34/10/1 35/11/1 36/12/1
f 37/5/1 38/6/1 39/7/1 40/8/1
f 41/13/1 42/14/1 43/5/1 44/15/1
f 45/12/1 46/11/1 47/16/1 48/17/1
f 49/18/1 50/19/1 51/20/1 52/21/1
f 53/5/1 54/6/1 55/7/1 56/8/1
f 57/22/1 58/18/1 59/21/1 60/23/1
f 61/15/1 62/5/1 63/8/1 64/24/1
f 65/25/1 66/26/1 67/27/1 68/28/1
f 69/2/1 70/29/1 71/30/1 72/3/1
f 73/31/1 74/32/1 75/33/1 76/34/1
f 77/32/1 78/35/1 79/36/1 80/33/1
f 81/9/1 82/10/1 83/11/1 84/12/1
f 85/5/1 86/6/1 87/7/1 88/8/1
f 89/5/1 90/6/1 91/7/1 92/8/1
f 93/5/1 94/6/1 95/7/1 96/8/1
f 97/13/1 98/14/1 99/5/1 100/15/1
f 101/37/1 102/38/1 103/29/1 104/2/1
f 105/9/1 106/10/1 107/11/1 108/12/1
f 109/5/1 110/6/1 111/7/1 112/8/1
f 113/5/1 114/6/1 115/7/1 116/8/1
f 117/5/1 118/6/1 119/7/1 120/8/1
f 121/13/1 122/14/1 123/5/1 124/15/1
f 125/39/1 126/17/1 127/40/1 128/41/1
f 129/9/1 130/10/1 131/11/1 132/12/1
f 133/5/1 134/6/1 135/7/1 136/8/1
f 137/5/1 138/6/1 139/7/1 140/8/1
f 141/5/1 142/6/1 143/7/1 144/8/1
f 145/13/1 146/14/1 147/5/1 148/15/1
f 149/20/1 150/42/1 151/43/1 152/44/1
f 153/42/1 154/45/1 155/46/1 156/43/1
f 157/45/1 158/47/1 159/48/1 160/46/1
f 161/9/1 162/10/1 163/11/1 164/12/1
f 165/5/1 166/6/1 167/7/1 168/8/1
f 169/5/1 170/6/1 171/7/1 172/8/1
f 173/5/1 174/6/1 175/7/1 176/8/1
f 177/13/1 178/14/1 179/5/1 180/15/1
f 181/19/1 182/49/1 183/42/1 184/20/1
f 185/49/1 186/50/1 187/45/1 188/42/1
f 189/50/1 190/51/1 191/47/1 192/45/1
f 193/9/1 194/10/1 195/11/1 196/12/1
f 197/5/1 198/6/1 199/7/1 200/8/1
f 201/5/1 202/6/1 203/7/1 204/8/1
f 205/5/1 206/6/1 207/7/1 208/8/1
f 209/13/1 210/14/1 211/5/1 212/15/1
f 213/9/1 214/10/1 215/11/1 216/12/1
f 217/5/1 218/6/1 219/7/1 220/8/1
f 221/5/1 222/6/1 223/7/1 224/8/1
f 225/5/1 226/6/1 227/7/1 228/8/1
f 229/13/1 230/14/1 231/5/1 232/15/1
f 233/10/1 234/13/1 235/15/1 236/11/1
f 237/13/1 238/14/1 239/5/1 240/15/1
f 241/9/1 242/10/1 243/11/1 244/12/1
f 245/5/1 246/6/1 247/7/1 248/8/1
f 249/5/1 250/6/1 251/7/1 252/8/1
f 253/5/1 254/6/1 255/7/1 256/8/1
f 257/13/1 258/14/1 259/5/1 260/15/1
f 261/9/1 262/10/1 263/11/1 264/12/1
f 265/10/1 266/13/1 267/15/1 268/11/1
f 269/13/1 270/14/1 271/5/1 272/15/1
f 273/9/1 274/10/1 275/11/1 276/12/1
f 277/5/1 278/6/1 279/7/1 280/8/1
f 281/5/1 282/6/1 283/7/1 284/8/1
f 285/5/1 286/6/1 287/7/1 288/8/1
f 289/13/1 290/14/1 291/5/1 292/15/1
f 293/9/1 294/10/1 295/11/1 296/12/1
f 297/10/1 298/13/1 299/15/1 300/11/1
f 301/13/1 302/14/1 303/5/1 304/15/1
f 305/9/1 306/10/1 307/11/1 308/12/1
f 309/5/1 310/6/1 311/7/1 312/8/1
f 313/5/1 314/6/1 315/7/1 316/8/1
f 317/5/1 318/6/1 319/7/1 320/8/1
f 321/13/1 322/14/1 323/5/1 324/15/1
f 325/12/1 326/11/1 327/16/1 328/17/1
f 329/11/1 330/15/1 331/24/1 332/16/1
f 333/11/1 334/15/1 335/24/1 336/16/1
f 337/11/1 338/15/1 339/24/1 340/16/1
f 341/18/1 342/19/1 343/20/1 344/21/1
f 345/23/1 346/21/1 347/52/1 348/53/1
f 349/44/1 350/43/1 351/14/1 352/13/1
f 353/9/1 354/10/1 355/11/1 356/12/1
f 357/5/1 358/6/1 359/7/1 360/8/1
f 361/5/1 362/6/1 363/7/1 364/8/1
f 365/5/1 366/6/1 367/7/1 368/8/1
f 369/13/1 370/14/1 371/5/1 372/15/1
f 373/53/1 374/52/1 375/10/1 376/9/1
f 377/52/1 378/44/1 379/13/1 380/10/1
f 381/52/1 382/44/1 383/13/1 384/10/1
f 385/52/1 386/44/1 387/13/1 388/10/1
f 389/21/1 390/20/1 391/44/1 392/52/1
f 393/22/1 394/18/1 395/21/1 396/23/1
f 397/15/1 398/5/1 399/8/1 400/24/1
f 401/12/1 402/11/1 403/16/1 404/17/1
f 405/18/1 406/19/1 407/20/1 408/21/1
f 409/5/1 410/6/1 411/7/1 412/8/1
f 413/5/1 414/6/1 415/7/1 416/8/1
f 417/5/1 418/6/1 419/7/1 420/8/1
f 421/13/1 422/14/1 423/5/1 424/15/1
f 425/53/1 426/52/1 427/10/1 428/9/1
f 429/52/1 430/44/1 431/13/1 432/10/1
f 433/44/1 434/43/1 435/14/1 436/13/1
f 437/12/1 438/11/1 439/16/1 440/17/1
f 441/11/1 442/15/1 443/24/1 444/16/1
f 445/18/1 446/19/1 447/20/1 448/21/1
f 449/5/1 450/6/1 451/7/1 452/8/1
f 453/5/1 454/6/1 455/7/1 456/8/1
f 457/5/1 458/6/1 459/7/1 460/8/1
f 461/5/1 462/6/1 463/7/1 464/8/1
f 465/13/1 466/14/1 467/5/1 468/15/1
f 469/12/1 470/11/1 471/16/1 472/17/1
f 473/18/1 474/19/1 475/20/1 476/21/1
f 477/5/1 478/6/1 479/7/1 480/8/1
f 481/5/1 482/6/1 483/7/1 484/8/1
f 485/5/1 486/6/1 487/7/1 488/8/1
f 489/5/1 490/6/1 491/7/1 492/8/1
f 493/5/1 494/6/1 495/7/1 496/8/1
f 497/5/1 498/6/1 499/7/1 500/8/1
f 501/13/1 502/14/1 503/5/1 504/15/1
f 505/18/1 506/19/1 507/20/1 508/21/1
f 509/5/1 510/6/1 511/7/1 512/8/1
f 513/5/1 514/6/1 515/7/1 516/8/1
f 517/5/1 518/6/1 519/7/1 520/8/1
f 521/5/1 522/6/1 523/7/1 524/8/1
f 525/5/1 526/6/1 527/7/1 528/8/1
f 529/5/1 530/6/1 531/7/1 532/8/1
f 533/23/1 534/21/1 535/52/1 536/53/1
f 537/44/1 538/43/1 539/14/1 540/13/1
f 541/12/1 542/11/1 543/16/1 544/17/1
f 545/18/1 546/19/1 547/20/1 548/21/1
f 549/5/1 550/6/1 551/7/1 552/8/1
f 553/5/1 554/6/1 555/7/1 556/8/1
f 557/5/1 558/6/1 559/7/1 560/8/1
f 561/5/1 562/6/1 563/7/1 564/8/1
f 565/5/1 566/6/1 567/7/1 568/8/1
f 569/5/1 570/6/1 571/7/1 572/8/1
f 573/23/1 574/21/1 575/52/1 576/53/1
f 577/44/1 578/43/1 579/14/1 580/13/1
f 581/9/1 582/10/1 583/11/1 584/12/1
f 585/5/1 586/6/1 587/7/1 588/8/1
f 589/5/1 590/6/1 591/7/1 592/8/1
f 593/5/1 594/6/1 595/7/1 596/8/1
f 597/5/1 598/6/1 599/7/1 600/8/1
f 601/5/1 602/6/1 603/7/1 604/8/1
f 605/23/1 606/21/1 607/52/1 608/53/1
f 609/52/1 610/44/1 611/13/1 612/10/1
f 613/44/1 614/43/1 615/14/1 616/13/1
f 617/12/1 618/11/1 619/16/1 620/17/1
f 621/18/1 622/19/1 623/20/1 624/21/1
f 625/5/1 626/6/1 627/7/1 628/8/1
f 629/5/1 630/6/1 631/7/1 632/8/1
f 633/5/1 634/6/1 635/7/1 636/8/1
f 637/23/1 638/21/1 639/52/1 640/53/1
f 641/52/1 642/44/1 643/13/1 644/10/1
f 645/44/1 646/43/1 647/14/1 648/13/1
f 649/9/1 650/10/1 651/11/1 652/12/1
f 653/5/1 654/6/1 655/7/1 656/8/1
f 657/5/1 658/6/1 659/7/1 660/8/1
f 661/5/1 662/6/1 663/7/1 664/8/1
f 665/5/1 666/6/1 667/7/1 668/8/1
f 669/13/1 670/14/1 671/5/1 672/15/1
f 673/9/1 674/10/1 675/11/1 676/12/1
f 677/5/1 678/6/1 679/7/1 680/8/1
f 681/5/1 682/6/1 683/7/1 684/8/1
f 685/5/1 686/6/1 687/7/1 688/8/1
f 689/23/1 690/21/1 691/52/1 692/53/1
f 693/44/1 694/43/1 695/14/1 696/13/1
f 697/9/1 698/10/1 699/11/1 700/12/1
f 701/5/1 702/6/1 703/7/1 704/8/1
f 705/5/1 706/6/1 707/7/1 708/8/1
f 709/5/1 710/6/1 711/7/1 712/8/1
f 713/13/1 714/14/1 715/5/1 716/15/1
f 717/9/1 718/10/1 719/11/1 720/12/1
f 721/5/1 722/6/1 723/7/1 724/8/1
f 725/5/1 726/6/1 727/7/1 728/8/1
f 729/5/1 730/6/1 731/7/1 732/8/1
f 733/13/1 734/14/1 735/5/1 736/15/1
f 737/9/1 738/10/1 739/11/1 740/12/1
f 741/5/1 742/6/1 743/7/1 744/8/1
f 745/5/1 746/6/1 747/7/1 748/8/1
f 749/5/1 750/6/1 751/7/1 752/8/1
f 753/13/1 754/14/1 755/5/1 756/15/1
f 757/9/1 758/10/1 759/11/1 760/12/1
f 761/5/1 762/6/1 763/7/1 764/8/1
f 765/5/1 766/6/1 767/7/1 768/8/1
f 769/5/1 770/6/1 771/7/1 772/8/1
f 773/13/1 774/14/1 775/5/1 776/15/1
f 777/9/1 778/10/1 779/11/1 780/12/1
f 781/5/1 782/6/1 783/7/1 784/8/1
f 785/5/1 786/6/1 787/7/1 788/8/1
f 789/5/1 790/6/1 791/7/1 792/8/1
f 793/13/1 794/14/1 795/5/1 796/15/1
f 797/9/1 798/10/1 799/11/1 800/12/1
f 801/5/1 802/6/1 803/7/1 804/8/1
f 805/5/1 806/6/1 807/7/1 808/8/1
f 809/5/1 810/6/1 811/7/1 812/8/1
f 813/13/1 814/14/1 815/5/1 816/15/1
f 817/9/1 818/10/1 819/11/1 820/12/1
f 821/5/1 822/6/1 823/7/1 824/8/1
f 825/5/1 826/6/1 827/7/1 828/8/1
f 829/5/1 830/6/1 831/7/1 832/8/1
f 833/13/1 834/14/1 835/5/1 836/15/1
f 837/9/1 838/10/1 839/11/1 840/12/1
f 841/5/1 842/6/1 843/7/1 844/8/1
f 845/5/1 846/6/1 847/7/1 848/8/1
f 849/5/1 850/6/1 851/7/1 852/8/1
f 853/13/1 854/14/1 855/5/1 856/15/1
f 857/9/1 858/10/1 859/11/1 860/12/1
f 861/5/1 862/6/1 863/7/1 864/8/1
f 865/5/1 866/6/1 867/7/1 868/8/1
f 869/5/1 870/6/1 871/7/1 872/8/1
f 873/13/1 874/14/1 875/5/1 876/15/1
f 877/9/1 878/10/1 879/11/1 880/12/1
f 881/5/1 882/6/1 883/7/1 884/8/1
f 885/5/1 886/6/1 887/7/1 888/8/1
f 889/5/1 890/6/1 891/7/1 892/8/1
f 893/13/1 894/14/1 895/5/1 896/15/1
f 897/9/1 898/10/1 899/11/1 900/12/1
f 901/5/1 902/6/1 903/7/1 904/8/1
f 905/5/1 906/6/1 907/7/1 908/8/1
f 909/5/1 910/6/1 911/7/1 912/8/1
f 913/13/1 914/14/1 915/5/1 916/15/1
f 917/9/1 918/10/1 919/11/1 920/12/1
f 921/5/1 922/6/1 923/7/1 924/8/1
f 925/5/1 926/6/1 927/7/1 928/8/1
f 929/5/1 930/6/1 931/7/1 932/8/1
f 933/13/1 934/14/1 935/5/1 936/15/1
f 937/9/1 938/10/1 939/11/1 940/12/1
f 941/5/1 942/6/1 943/7/1 944/8/1
f 945/5/1 946/6/1 947/7/1 948/8/1
f 949/54/1 950/55/1 951/56/1 952/6/1
f 953/13/1 954/14/1 955/5/1 956/15/1
f 957/9/1 958/10/1 959/11/1 960/12/1
f 961/5/1 962/6/1 963/7/1 964/8/1
f 965/5/1 966/6/1 967/7/1 968/8/1
f 969/54/1 970/55/1 971/56/1 972/6/1
f 973/13/1 974/14/1 975/5/1 976/15/1
f 977/9/1 978/10/1 979/11/1 980/12/1
f 981/5/1 982/6/1 983/7/1 984/8/1
f 985/5/1 986/6/1 987/7/1 988/8/1
f 989/54/1 990/55/1 991/56/1 992/6/1
f 993/13/1 994/14/1 995/5/1 996/15/1
f 997/9/1 998/10/1 999/11/1 1000/12/1
f 1001/5/1 1002/6/1 1003/7/1 1004/8/1
f 1005/5/1 1006/6/1 1007/7/1 1008/8/1
f 1009/54/1 1010/55/1 1011/56/1 1012/6/1
f 1013/13/1 1014/14/1 1015/5/1 1016/15/1
f 1017/9/1 1018/10/1 1019/11/1 1020/12/1
f 1021/5/1 1022/6/1 1023/7/1 1024/8/1
f 1025/54/1 1026/55/1 1027/56/1 1028/6/1
f 1029/54/1 1030/55/1 1031/56/1 1032/6/1
f 1033/13/1 1034/14/1 1035/5/1 1036/15/1
f 1037/9/1 1038/10/1 1039/11/1 1040/12/1
f 1041/54/1 1042/55/1 1043/56/1 1044/6/1
f 1045/54/1 1046/55/1 1047/56/1 1048/6/1
f 1049/54/1 1050/55/1 1051/56/1 1052/6/1
f 1053/13/1 1054/14/1 1055/5/1 1056/15/1
f 1057/9/1 1058/10/1 1059/11/1 1060/12/1
f 1061/54/1 1062/55/1 1063/56/1 1064/6/1
f 1065/54/1 1066/55/1 1067/56/1 1068/6/1
f 1069/54/1 1070/55/1 1071/56/1 1072/6/1
f 1073/13/1 1074/14/1 1075/5/1 1076/15/1
f 1077/9/1 1078/10/1 1079/11/1 1080/12/1
f 1081/54/1 1082/55/1 1083/56/1 1084/6/1
f 1085/54/1 1086/55/1 1087/56/1 1088/6/1
f 1089/54/1 1090/55/1 1091/56/1 1092/6/1
f 1093/13/1 1094/14/1 1095/5/1 1096/15/1
f 1097/9/1 1098/10/1 1099/11/1 1100/12/1
f 1101/54/1 1102/55/1 1103/56/1 1104/6/1
f 1105/54/1 1106/55/1 1107/56/1 1108/6/1
f 1109/54/1 1110/55/1 1111/56/1 1112/6/1
f 1113/13/1 1114/14/1 1115/5/1 1116/15/1

