# Tiled2Unity generated file. Do not modify by hand.
# Wavefront file for 'Plantio_mesh_0001.obj'

# Vertices (Count = 1200)
v 0 -1 0
v -1 -1 0
v -1 0 0
v 0 0 0
v -1 -1 0
v -2 -1 0
v -2 0 0
v -1 0 0
v -2 -1 0
v -3 -1 0
v -3 0 0
v -2 0 0
v -3 -1 0
v -4 -1 0
v -4 0 0
v -3 0 0
v -4 -1 0
v -5 -1 0
v -5 0 0
v -4 0 0
v -5 -1 0
v -6 -1 0
v -6 0 0
v -5 0 0
v -6 -1 0
v -7 -1 0
v -7 0 0
v -6 0 0
v -7 -1 0
v -8 -1 0
v -8 0 0
v -7 0 0
v -8 -1 0
v -9 -1 0
v -9 0 0
v -8 0 0
v -9 -1 0
v -10 -1 0
v -10 0 0
v -9 0 0
v -10 -1 0
v -11 -1 0
v -11 0 0
v -10 0 0
v -11 -1 0
v -12 -1 0
v -12 0 0
v -11 0 0
v -12 -1 0
v -13 -1 0
v -13 0 0
v -12 0 0
v -13 -1 0
v -14 -1 0
v -14 0 0
v -13 0 0
v -14 -1 0
v -15 -1 0
v -15 0 0
v -14 0 0
v 0 -2 0
v -1 -2 0
v -1 -1 0
v 0 -1 0
v -1 -2 0
v -2 -2 0
v -2 -1 0
v -1 -1 0
v -2 -2 0
v -3 -2 0
v -3 -1 0
v -2 -1 0
v -3 -2 0
v -4 -2 0
v -4 -1 0
v -3 -1 0
v -4 -2 0
v -5 -2 0
v -5 -1 0
v -4 -1 0
v -5 -2 0
v -6 -2 0
v -6 -1 0
v -5 -1 0
v -6 -2 0
v -7 -2 0
v -7 -1 0
v -6 -1 0
v -7 -2 0
v -8 -2 0
v -8 -1 0
v -7 -1 0
v -8 -2 0
v -9 -2 0
v -9 -1 0
v -8 -1 0
v -9 -2 0
v -10 -2 0
v -10 -1 0
v -9 -1 0
v -10 -2 0
v -11 -2 0
v -11 -1 0
v -10 -1 0
v -11 -2 0
v -12 -2 0
v -12 -1 0
v -11 -1 0
v -12 -2 0
v -13 -2 0
v -13 -1 0
v -12 -1 0
v -13 -2 0
v -14 -2 0
v -14 -1 0
v -13 -1 0
v -14 -2 0
v -15 -2 0
v -15 -1 0
v -14 -1 0
v 0 -3 0
v -1 -3 0
v -1 -2 0
v 0 -2 0
v -1 -3 0
v -2 -3 0
v -2 -2 0
v -1 -2 0
v -2 -3 0
v -3 -3 0
v -3 -2 0
v -2 -2 0
v -3 -3 0
v -4 -3 0
v -4 -2 0
v -3 -2 0
v -4 -3 0
v -5 -3 0
v -5 -2 0
v -4 -2 0
v -5 -3 0
v -6 -3 0
v -6 -2 0
v -5 -2 0
v -6 -3 0
v -7 -3 0
v -7 -2 0
v -6 -2 0
v -7 -3 0
v -8 -3 0
v -8 -2 0
v -7 -2 0
v -8 -3 0
v -9 -3 0
v -9 -2 0
v -8 -2 0
v -9 -3 0
v -10 -3 0
v -10 -2 0
v -9 -2 0
v -10 -3 0
v -11 -3 0
v -11 -2 0
v -10 -2 0
v -11 -3 0
v -12 -3 0
v -12 -2 0
v -11 -2 0
v -12 -3 0
v -13 -3 0
v -13 -2 0
v -12 -2 0
v -13 -3 0
v -14 -3 0
v -14 -2 0
v -13 -2 0
v -14 -3 0
v -15 -3 0
v -15 -2 0
v -14 -2 0
v 0 -4 0
v -1 -4 0
v -1 -3 0
v 0 -3 0
v -1 -4 0
v -2 -4 0
v -2 -3 0
v -1 -3 0
v -2 -4 0
v -3 -4 0
v -3 -3 0
v -2 -3 0
v -3 -4 0
v -4 -4 0
v -4 -3 0
v -3 -3 0
v -4 -4 0
v -5 -4 0
v -5 -3 0
v -4 -3 0
v -5 -4 0
v -6 -4 0
v -6 -3 0
v -5 -3 0
v -6 -4 0
v -7 -4 0
v -7 -3 0
v -6 -3 0
v -7 -4 0
v -8 -4 0
v -8 -3 0
v -7 -3 0
v -8 -4 0
v -9 -4 0
v -9 -3 0
v -8 -3 0
v -9 -4 0
v -10 -4 0
v -10 -3 0
v -9 -3 0
v -10 -4 0
v -11 -4 0
v -11 -3 0
v -10 -3 0
v -11 -4 0
v -12 -4 0
v -12 -3 0
v -11 -3 0
v -12 -4 0
v -13 -4 0
v -13 -3 0
v -12 -3 0
v -13 -4 0
v -14 -4 0
v -14 -3 0
v -13 -3 0
v -14 -4 0
v -15 -4 0
v -15 -3 0
v -14 -3 0
v 0 -5 0
v -1 -5 0
v -1 -4 0
v 0 -4 0
v -1 -5 0
v -2 -5 0
v -2 -4 0
v -1 -4 0
v -2 -5 0
v -3 -5 0
v -3 -4 0
v -2 -4 0
v -3 -5 0
v -4 -5 0
v -4 -4 0
v -3 -4 0
v -4 -5 0
v -5 -5 0
v -5 -4 0
v -4 -4 0
v -5 -5 0
v -6 -5 0
v -6 -4 0
v -5 -4 0
v -6 -5 0
v -7 -5 0
v -7 -4 0
v -6 -4 0
v -7 -5 0
v -8 -5 0
v -8 -4 0
v -7 -4 0
v -8 -5 0
v -9 -5 0
v -9 -4 0
v -8 -4 0
v -9 -5 0
v -10 -5 0
v -10 -4 0
v -9 -4 0
v -10 -5 0
v -11 -5 0
v -11 -4 0
v -10 -4 0
v -11 -5 0
v -12 -5 0
v -12 -4 0
v -11 -4 0
v -12 -5 0
v -13 -5 0
v -13 -4 0
v -12 -4 0
v -13 -5 0
v -14 -5 0
v -14 -4 0
v -13 -4 0
v -14 -5 0
v -15 -5 0
v -15 -4 0
v -14 -4 0
v 0 -6 0
v -1 -6 0
v -1 -5 0
v 0 -5 0
v -1 -6 0
v -2 -6 0
v -2 -5 0
v -1 -5 0
v -2 -6 0
v -3 -6 0
v -3 -5 0
v -2 -5 0
v -3 -6 0
v -4 -6 0
v -4 -5 0
v -3 -5 0
v -4 -6 0
v -5 -6 0
v -5 -5 0
v -4 -5 0
v -5 -6 0
v -6 -6 0
v -6 -5 0
v -5 -5 0
v -6 -6 0
v -7 -6 0
v -7 -5 0
v -6 -5 0
v -7 -6 0
v -8 -6 0
v -8 -5 0
v -7 -5 0
v -8 -6 0
v -9 -6 0
v -9 -5 0
v -8 -5 0
v -9 -6 0
v -10 -6 0
v -10 -5 0
v -9 -5 0
v -10 -6 0
v -11 -6 0
v -11 -5 0
v -10 -5 0
v -11 -6 0
v -12 -6 0
v -12 -5 0
v -11 -5 0
v -12 -6 0
v -13 -6 0
v -13 -5 0
v -12 -5 0
v -13 -6 0
v -14 -6 0
v -14 -5 0
v -13 -5 0
v -14 -6 0
v -15 -6 0
v -15 -5 0
v -14 -5 0
v 0 -7 0
v -1 -7 0
v -1 -6 0
v 0 -6 0
v -1 -7 0
v -2 -7 0
v -2 -6 0
v -1 -6 0
v -2 -7 0
v -3 -7 0
v -3 -6 0
v -2 -6 0
v -3 -7 0
v -4 -7 0
v -4 -6 0
v -3 -6 0
v -4 -7 0
v -5 -7 0
v -5 -6 0
v -4 -6 0
v -5 -7 0
v -6 -7 0
v -6 -6 0
v -5 -6 0
v -6 -7 0
v -7 -7 0
v -7 -6 0
v -6 -6 0
v -7 -7 0
v -8 -7 0
v -8 -6 0
v -7 -6 0
v -8 -7 0
v -9 -7 0
v -9 -6 0
v -8 -6 0
v -9 -7 0
v -10 -7 0
v -10 -6 0
v -9 -6 0
v -10 -7 0
v -11 -7 0
v -11 -6 0
v -10 -6 0
v -11 -7 0
v -12 -7 0
v -12 -6 0
v -11 -6 0
v -12 -7 0
v -13 -7 0
v -13 -6 0
v -12 -6 0
v -13 -7 0
v -14 -7 0
v -14 -6 0
v -13 -6 0
v -14 -7 0
v -15 -7 0
v -15 -6 0
v -14 -6 0
v 0 -8 0
v -1 -8 0
v -1 -7 0
v 0 -7 0
v -1 -8 0
v -2 -8 0
v -2 -7 0
v -1 -7 0
v -2 -8 0
v -3 -8 0
v -3 -7 0
v -2 -7 0
v -3 -8 0
v -4 -8 0
v -4 -7 0
v -3 -7 0
v -4 -8 0
v -5 -8 0
v -5 -7 0
v -4 -7 0
v -5 -8 0
v -6 -8 0
v -6 -7 0
v -5 -7 0
v -6 -8 0
v -7 -8 0
v -7 -7 0
v -6 -7 0
v -7 -8 0
v -8 -8 0
v -8 -7 0
v -7 -7 0
v -8 -8 0
v -9 -8 0
v -9 -7 0
v -8 -7 0
v -9 -8 0
v -10 -8 0
v -10 -7 0
v -9 -7 0
v -10 -8 0
v -11 -8 0
v -11 -7 0
v -10 -7 0
v -11 -8 0
v -12 -8 0
v -12 -7 0
v -11 -7 0
v -12 -8 0
v -13 -8 0
v -13 -7 0
v -12 -7 0
v -13 -8 0
v -14 -8 0
v -14 -7 0
v -13 -7 0
v -14 -8 0
v -15 -8 0
v -15 -7 0
v -14 -7 0
v 0 -9 0
v -1 -9 0
v -1 -8 0
v 0 -8 0
v -1 -9 0
v -2 -9 0
v -2 -8 0
v -1 -8 0
v -2 -9 0
v -3 -9 0
v -3 -8 0
v -2 -8 0
v -3 -9 0
v -4 -9 0
v -4 -8 0
v -3 -8 0
v -4 -9 0
v -5 -9 0
v -5 -8 0
v -4 -8 0
v -5 -9 0
v -6 -9 0
v -6 -8 0
v -5 -8 0
v -6 -9 0
v -7 -9 0
v -7 -8 0
v -6 -8 0
v -7 -9 0
v -8 -9 0
v -8 -8 0
v -7 -8 0
v -8 -9 0
v -9 -9 0
v -9 -8 0
v -8 -8 0
v -9 -9 0
v -10 -9 0
v -10 -8 0
v -9 -8 0
v -10 -9 0
v -11 -9 0
v -11 -8 0
v -10 -8 0
v -11 -9 0
v -12 -9 0
v -12 -8 0
v -11 -8 0
v -12 -9 0
v -13 -9 0
v -13 -8 0
v -12 -8 0
v -13 -9 0
v -14 -9 0
v -14 -8 0
v -13 -8 0
v -14 -9 0
v -15 -9 0
v -15 -8 0
v -14 -8 0
v 0 -10 0
v -1 -10 0
v -1 -9 0
v 0 -9 0
v -1 -10 0
v -2 -10 0
v -2 -9 0
v -1 -9 0
v -2 -10 0
v -3 -10 0
v -3 -9 0
v -2 -9 0
v -3 -10 0
v -4 -10 0
v -4 -9 0
v -3 -9 0
v -4 -10 0
v -5 -10 0
v -5 -9 0
v -4 -9 0
v -5 -10 0
v -6 -10 0
v -6 -9 0
v -5 -9 0
v -6 -10 0
v -7 -10 0
v -7 -9 0
v -6 -9 0
v -7 -10 0
v -8 -10 0
v -8 -9 0
v -7 -9 0
v -8 -10 0
v -9 -10 0
v -9 -9 0
v -8 -9 0
v -9 -10 0
v -10 -10 0
v -10 -9 0
v -9 -9 0
v -10 -10 0
v -11 -10 0
v -11 -9 0
v -10 -9 0
v -11 -10 0
v -12 -10 0
v -12 -9 0
v -11 -9 0
v -12 -10 0
v -13 -10 0
v -13 -9 0
v -12 -9 0
v -13 -10 0
v -14 -10 0
v -14 -9 0
v -13 -9 0
v -14 -10 0
v -15 -10 0
v -15 -9 0
v -14 -9 0
v 0 -11 0
v -1 -11 0
v -1 -10 0
v 0 -10 0
v -1 -11 0
v -2 -11 0
v -2 -10 0
v -1 -10 0
v -2 -11 0
v -3 -11 0
v -3 -10 0
v -2 -10 0
v -3 -11 0
v -4 -11 0
v -4 -10 0
v -3 -10 0
v -4 -11 0
v -5 -11 0
v -5 -10 0
v -4 -10 0
v -5 -11 0
v -6 -11 0
v -6 -10 0
v -5 -10 0
v -6 -11 0
v -7 -11 0
v -7 -10 0
v -6 -10 0
v -7 -11 0
v -8 -11 0
v -8 -10 0
v -7 -10 0
v -8 -11 0
v -9 -11 0
v -9 -10 0
v -8 -10 0
v -9 -11 0
v -10 -11 0
v -10 -10 0
v -9 -10 0
v -10 -11 0
v -11 -11 0
v -11 -10 0
v -10 -10 0
v -11 -11 0
v -12 -11 0
v -12 -10 0
v -11 -10 0
v -12 -11 0
v -13 -11 0
v -13 -10 0
v -12 -10 0
v -13 -11 0
v -14 -11 0
v -14 -10 0
v -13 -10 0
v -14 -11 0
v -15 -11 0
v -15 -10 0
v -14 -10 0
v 0 -12 0
v -1 -12 0
v -1 -11 0
v 0 -11 0
v -1 -12 0
v -2 -12 0
v -2 -11 0
v -1 -11 0
v -2 -12 0
v -3 -12 0
v -3 -11 0
v -2 -11 0
v -3 -12 0
v -4 -12 0
v -4 -11 0
v -3 -11 0
v -4 -12 0
v -5 -12 0
v -5 -11 0
v -4 -11 0
v -5 -12 0
v -6 -12 0
v -6 -11 0
v -5 -11 0
v -6 -12 0
v -7 -12 0
v -7 -11 0
v -6 -11 0
v -7 -12 0
v -8 -12 0
v -8 -11 0
v -7 -11 0
v -8 -12 0
v -9 -12 0
v -9 -11 0
v -8 -11 0
v -9 -12 0
v -10 -12 0
v -10 -11 0
v -9 -11 0
v -10 -12 0
v -11 -12 0
v -11 -11 0
v -10 -11 0
v -11 -12 0
v -12 -12 0
v -12 -11 0
v -11 -11 0
v -12 -12 0
v -13 -12 0
v -13 -11 0
v -12 -11 0
v -13 -12 0
v -14 -12 0
v -14 -11 0
v -13 -11 0
v -14 -12 0
v -15 -12 0
v -15 -11 0
v -14 -11 0
v 0 -13 0
v -1 -13 0
v -1 -12 0
v 0 -12 0
v -1 -13 0
v -2 -13 0
v -2 -12 0
v -1 -12 0
v -2 -13 0
v -3 -13 0
v -3 -12 0
v -2 -12 0
v -3 -13 0
v -4 -13 0
v -4 -12 0
v -3 -12 0
v -4 -13 0
v -5 -13 0
v -5 -12 0
v -4 -12 0
v -5 -13 0
v -6 -13 0
v -6 -12 0
v -5 -12 0
v -6 -13 0
v -7 -13 0
v -7 -12 0
v -6 -12 0
v -7 -13 0
v -8 -13 0
v -8 -12 0
v -7 -12 0
v -8 -13 0
v -9 -13 0
v -9 -12 0
v -8 -12 0
v -9 -13 0
v -10 -13 0
v -10 -12 0
v -9 -12 0
v -10 -13 0
v -11 -13 0
v -11 -12 0
v -10 -12 0
v -11 -13 0
v -12 -13 0
v -12 -12 0
v -11 -12 0
v -12 -13 0
v -13 -13 0
v -13 -12 0
v -12 -12 0
v -13 -13 0
v -14 -13 0
v -14 -12 0
v -13 -12 0
v -14 -13 0
v -15 -13 0
v -15 -12 0
v -14 -12 0
v 0 -14 0
v -1 -14 0
v -1 -13 0
v 0 -13 0
v -1 -14 0
v -2 -14 0
v -2 -13 0
v -1 -13 0
v -2 -14 0
v -3 -14 0
v -3 -13 0
v -2 -13 0
v -3 -14 0
v -4 -14 0
v -4 -13 0
v -3 -13 0
v -4 -14 0
v -5 -14 0
v -5 -13 0
v -4 -13 0
v -5 -14 0
v -6 -14 0
v -6 -13 0
v -5 -13 0
v -6 -14 0
v -7 -14 0
v -7 -13 0
v -6 -13 0
v -7 -14 0
v -8 -14 0
v -8 -13 0
v -7 -13 0
v -8 -14 0
v -9 -14 0
v -9 -13 0
v -8 -13 0
v -9 -14 0
v -10 -14 0
v -10 -13 0
v -9 -13 0
v -10 -14 0
v -11 -14 0
v -11 -13 0
v -10 -13 0
v -11 -14 0
v -12 -14 0
v -12 -13 0
v -11 -13 0
v -12 -14 0
v -13 -14 0
v -13 -13 0
v -12 -13 0
v -13 -14 0
v -14 -14 0
v -14 -13 0
v -13 -13 0
v -14 -14 0
v -15 -14 0
v -15 -13 0
v -14 -13 0
v 0 -15 0
v -1 -15 0
v -1 -14 0
v 0 -14 0
v -1 -15 0
v -2 -15 0
v -2 -14 0
v -1 -14 0
v -2 -15 0
v -3 -15 0
v -3 -14 0
v -2 -14 0
v -3 -15 0
v -4 -15 0
v -4 -14 0
v -3 -14 0
v -4 -15 0
v -5 -15 0
v -5 -14 0
v -4 -14 0
v -5 -15 0
v -6 -15 0
v -6 -14 0
v -5 -14 0
v -6 -15 0
v -7 -15 0
v -7 -14 0
v -6 -14 0
v -7 -15 0
v -8 -15 0
v -8 -14 0
v -7 -14 0
v -8 -15 0
v -9 -15 0
v -9 -14 0
v -8 -14 0
v -9 -15 0
v -10 -15 0
v -10 -14 0
v -9 -14 0
v -10 -15 0
v -11 -15 0
v -11 -14 0
v -10 -14 0
v -11 -15 0
v -12 -15 0
v -12 -14 0
v -11 -14 0
v -12 -15 0
v -13 -15 0
v -13 -14 0
v -12 -14 0
v -13 -15 0
v -14 -15 0
v -14 -14 0
v -13 -14 0
v -14 -15 0
v -15 -15 0
v -15 -14 0
v -14 -14 0
v 0 -16 0
v -1 -16 0
v -1 -15 0
v 0 -15 0
v -1 -16 0
v -2 -16 0
v -2 -15 0
v -1 -15 0
v -2 -16 0
v -3 -16 0
v -3 -15 0
v -2 -15 0
v -3 -16 0
v -4 -16 0
v -4 -15 0
v -3 -15 0
v -4 -16 0
v -5 -16 0
v -5 -15 0
v -4 -15 0
v -5 -16 0
v -6 -16 0
v -6 -15 0
v -5 -15 0
v -6 -16 0
v -7 -16 0
v -7 -15 0
v -6 -15 0
v -7 -16 0
v -8 -16 0
v -8 -15 0
v -7 -15 0
v -8 -16 0
v -9 -16 0
v -9 -15 0
v -8 -15 0
v -9 -16 0
v -10 -16 0
v -10 -15 0
v -9 -15 0
v -10 -16 0
v -11 -16 0
v -11 -15 0
v -10 -15 0
v -11 -16 0
v -12 -16 0
v -12 -15 0
v -11 -15 0
v -12 -16 0
v -13 -16 0
v -13 -15 0
v -12 -15 0
v -13 -16 0
v -14 -16 0
v -14 -15 0
v -13 -15 0
v -14 -16 0
v -15 -16 0
v -15 -15 0
v -14 -15 0
v 0 -17 0
v -1 -17 0
v -1 -16 0
v 0 -16 0
v -1 -17 0
v -2 -17 0
v -2 -16 0
v -1 -16 0
v -2 -17 0
v -3 -17 0
v -3 -16 0
v -2 -16 0
v -3 -17 0
v -4 -17 0
v -4 -16 0
v -3 -16 0
v -4 -17 0
v -5 -17 0
v -5 -16 0
v -4 -16 0
v -5 -17 0
v -6 -17 0
v -6 -16 0
v -5 -16 0
v -6 -17 0
v -7 -17 0
v -7 -16 0
v -6 -16 0
v -7 -17 0
v -8 -17 0
v -8 -16 0
v -7 -16 0
v -8 -17 0
v -9 -17 0
v -9 -16 0
v -8 -16 0
v -9 -17 0
v -10 -17 0
v -10 -16 0
v -9 -16 0
v -10 -17 0
v -11 -17 0
v -11 -16 0
v -10 -16 0
v -11 -17 0
v -12 -17 0
v -12 -16 0
v -11 -16 0
v -12 -17 0
v -13 -17 0
v -13 -16 0
v -12 -16 0
v -13 -17 0
v -14 -17 0
v -14 -16 0
v -13 -16 0
v -14 -17 0
v -15 -17 0
v -15 -16 0
v -14 -16 0
v 0 -18 0
v -1 -18 0
v -1 -17 0
v 0 -17 0
v -1 -18 0
v -2 -18 0
v -2 -17 0
v -1 -17 0
v -2 -18 0
v -3 -18 0
v -3 -17 0
v -2 -17 0
v -3 -18 0
v -4 -18 0
v -4 -17 0
v -3 -17 0
v -4 -18 0
v -5 -18 0
v -5 -17 0
v -4 -17 0
v -5 -18 0
v -6 -18 0
v -6 -17 0
v -5 -17 0
v -6 -18 0
v -7 -18 0
v -7 -17 0
v -6 -17 0
v -7 -18 0
v -8 -18 0
v -8 -17 0
v -7 -17 0
v -8 -18 0
v -9 -18 0
v -9 -17 0
v -8 -17 0
v -9 -18 0
v -10 -18 0
v -10 -17 0
v -9 -17 0
v -10 -18 0
v -11 -18 0
v -11 -17 0
v -10 -17 0
v -11 -18 0
v -12 -18 0
v -12 -17 0
v -11 -17 0
v -12 -18 0
v -13 -18 0
v -13 -17 0
v -12 -17 0
v -13 -18 0
v -14 -18 0
v -14 -17 0
v -13 -17 0
v -14 -18 0
v -15 -18 0
v -15 -17 0
v -14 -17 0
v 0 -19 0
v -1 -19 0
v -1 -18 0
v 0 -18 0
v -1 -19 0
v -2 -19 0
v -2 -18 0
v -1 -18 0
v -2 -19 0
v -3 -19 0
v -3 -18 0
v -2 -18 0
v -3 -19 0
v -4 -19 0
v -4 -18 0
v -3 -18 0
v -4 -19 0
v -5 -19 0
v -5 -18 0
v -4 -18 0
v -5 -19 0
v -6 -19 0
v -6 -18 0
v -5 -18 0
v -6 -19 0
v -7 -19 0
v -7 -18 0
v -6 -18 0
v -7 -19 0
v -8 -19 0
v -8 -18 0
v -7 -18 0
v -8 -19 0
v -9 -19 0
v -9 -18 0
v -8 -18 0
v -9 -19 0
v -10 -19 0
v -10 -18 0
v -9 -18 0
v -10 -19 0
v -11 -19 0
v -11 -18 0
v -10 -18 0
v -11 -19 0
v -12 -19 0
v -12 -18 0
v -11 -18 0
v -12 -19 0
v -13 -19 0
v -13 -18 0
v -12 -18 0
v -13 -19 0
v -14 -19 0
v -14 -18 0
v -13 -18 0
v -14 -19 0
v -15 -19 0
v -15 -18 0
v -14 -18 0
v 0 -20 0
v -1 -20 0
v -1 -19 0
v 0 -19 0
v -1 -20 0
v -2 -20 0
v -2 -19 0
v -1 -19 0
v -2 -20 0
v -3 -20 0
v -3 -19 0
v -2 -19 0
v -3 -20 0
v -4 -20 0
v -4 -19 0
v -3 -19 0
v -4 -20 0
v -5 -20 0
v -5 -19 0
v -4 -19 0
v -5 -20 0
v -6 -20 0
v -6 -19 0
v -5 -19 0
v -6 -20 0
v -7 -20 0
v -7 -19 0
v -6 -19 0
v -7 -20 0
v -8 -20 0
v -8 -19 0
v -7 -19 0
v -8 -20 0
v -9 -20 0
v -9 -19 0
v -8 -19 0
v -9 -20 0
v -10 -20 0
v -10 -19 0
v -9 -19 0
v -10 -20 0
v -11 -20 0
v -11 -19 0
v -10 -19 0
v -11 -20 0
v -12 -20 0
v -12 -19 0
v -11 -19 0
v -12 -20 0
v -13 -20 0
v -13 -19 0
v -12 -19 0
v -13 -20 0
v -14 -20 0
v -14 -19 0
v -13 -19 0
v -14 -20 0
v -15 -20 0
v -15 -19 0
v -14 -19 0

# Texture cooridinates (Count = 33)
vt 0.2 0.7222222
vt 0.225 0.7222222
vt 0.225 0.75
vt 0.2 0.75
vt 0.2 0.6944444
vt 0.225 0.6944444
vt 0.175 0.7222222
vt 0.175 0.75
vt 0.175 0.6944444
vt 0 0.1666667
vt 0.025 0.1666667
vt 0.025 0.1944444
vt 0 0.1944444
vt 0.05 0.1666667
vt 0.05 0.1944444
vt 0.075 0.1666667
vt 0.075 0.1944444
vt 0 0.1388889
vt 0.025 0.1388889
vt 0.025 0
vt 0.05 0
vt 0.05 0.02777779
vt 0.025 0.02777779
vt 0 0
vt 0 0.02777779
vt 0.025 0.05555558
vt 0 0.05555558
vt 0.05 0.05555558
vt 0.05 0.1388889
vt 0.075 0.1388889
vt 0 0.1111111
vt 0.025 0.1111111
vt 0.05 0.1111111

# Normal
vn 0 0 -1

# Mesh description
g Plantio_mesh_0001

# Faces
f 1/1/1 2/2/1 3/3/1 4/4/1
f 5/5/1 6/6/1 7/2/1 8/1/1
f 9/5/1 10/6/1 11/2/1 12/1/1
f 13/1/1 14/2/1 15/3/1 16/4/1
f 17/5/1 18/6/1 19/2/1 20/1/1
f 21/5/1 22/6/1 23/2/1 24/1/1
f 25/7/1 26/1/1 27/4/1 28/8/1
f 29/7/1 30/1/1 31/4/1 32/8/1
f 33/1/1 34/2/1 35/3/1 36/4/1
f 37/1/1 38/2/1 39/3/1 40/4/1
f 41/9/1 42/5/1 43/1/1 44/7/1
f 45/5/1 46/6/1 47/2/1 48/1/1
f 49/5/1 50/6/1 51/2/1 52/1/1
f 53/1/1 54/2/1 55/3/1 56/4/1
f 57/1/1 58/2/1 59/3/1 60/4/1
f 61/5/1 62/6/1 63/2/1 64/1/1
f 65/5/1 66/6/1 67/2/1 68/1/1
f 69/5/1 70/6/1 71/2/1 72/1/1
f 73/5/1 74/6/1 75/2/1 76/1/1
f 77/5/1 78/6/1 79/2/1 80/1/1
f 81/5/1 82/6/1 83/2/1 84/1/1
f 85/1/1 86/2/1 87/3/1 88/4/1
f 89/1/1 90/2/1 91/3/1 92/4/1
f 93/1/1 94/2/1 95/3/1 96/4/1
f 97/5/1 98/6/1 99/2/1 100/1/1
f 101/5/1 102/6/1 103/2/1 104/1/1
f 105/9/1 106/5/1 107/1/1 108/7/1
f 109/5/1 110/6/1 111/2/1 112/1/1
f 113/5/1 114/6/1 115/2/1 116/1/1
f 117/5/1 118/6/1 119/2/1 120/1/1
f 121/9/1 122/5/1 123/1/1 124/7/1
f 125/5/1 126/6/1 127/2/1 128/1/1
f 129/1/1 130/2/1 131/3/1 132/4/1
f 133/9/1 134/5/1 135/1/1 136/7/1
f 137/5/1 138/6/1 139/2/1 140/1/1
f 141/9/1 142/5/1 143/1/1 144/7/1
f 145/5/1 146/6/1 147/2/1 148/1/1
f 149/5/1 150/6/1 151/2/1 152/1/1
f 153/5/1 154/6/1 155/2/1 156/1/1
f 157/9/1 158/5/1 159/1/1 160/7/1
f 161/5/1 162/6/1 163/2/1 164/1/1
f 165/9/1 166/5/1 167/1/1 168/7/1
f 169/9/1 170/5/1 171/1/1 172/7/1
f 173/5/1 174/6/1 175/2/1 176/1/1
f 177/5/1 178/6/1 179/2/1 180/1/1
f 181/5/1 182/6/1 183/2/1 184/1/1
f 185/1/1 186/2/1 187/3/1 188/4/1
f 189/1/1 190/2/1 191/3/1 192/4/1
f 193/10/1 194/11/1 195/12/1 196/13/1
f 197/11/1 198/14/1 199/15/1 200/12/1
f 201/11/1 202/14/1 203/15/1 204/12/1
f 205/11/1 206/14/1 207/15/1 208/12/1
f 209/11/1 210/14/1 211/15/1 212/12/1
f 213/11/1 214/14/1 215/15/1 216/12/1
f 217/11/1 218/14/1 219/15/1 220/12/1
f 221/11/1 222/14/1 223/15/1 224/12/1
f 225/14/1 226/16/1 227/17/1 228/15/1
f 229/7/1 230/1/1 231/4/1 232/8/1
f 233/1/1 234/2/1 235/3/1 236/4/1
f 237/1/1 238/2/1 239/3/1 240/4/1
f 241/1/1 242/2/1 243/3/1 244/4/1
f 245/1/1 246/2/1 247/3/1 248/4/1
f 249/5/1 250/6/1 251/2/1 252/1/1
f 253/18/1 254/19/1 255/11/1 256/10/1
f 257/20/1 258/21/1 259/22/1 260/23/1
f 261/24/1 262/20/1 263/23/1 264/25/1
f 265/20/1 266/21/1 267/22/1 268/23/1
f 269/25/1 270/23/1 271/26/1 272/27/1
f 273/20/1 274/21/1 275/22/1 276/23/1
f 277/23/1 278/22/1 279/28/1 280/26/1
f 281/20/1 282/21/1 283/22/1 284/23/1
f 285/29/1 286/30/1 287/16/1 288/14/1
f 289/7/1 290/1/1 291/4/1 292/8/1
f 293/1/1 294/2/1 295/3/1 296/4/1
f 297/5/1 298/6/1 299/2/1 300/1/1
f 301/5/1 302/6/1 303/2/1 304/1/1
f 305/5/1 306/6/1 307/2/1 308/1/1
f 309/5/1 310/6/1 311/2/1 312/1/1
f 313/18/1 314/19/1 315/11/1 316/10/1
f 317/20/1 318/21/1 319/22/1 320/23/1
f 321/24/1 322/20/1 323/23/1 324/25/1
f 325/20/1 326/21/1 327/22/1 328/23/1
f 329/25/1 330/23/1 331/26/1 332/27/1
f 333/20/1 334/21/1 335/22/1 336/23/1
f 337/23/1 338/22/1 339/28/1 340/26/1
f 341/20/1 342/21/1 343/22/1 344/23/1
f 345/29/1 346/30/1 347/16/1 348/14/1
f 349/7/1 350/1/1 351/4/1 352/8/1
f 353/7/1 354/1/1 355/4/1 356/8/1
f 357/7/1 358/1/1 359/4/1 360/8/1
f 361/5/1 362/6/1 363/2/1 364/1/1
f 365/1/1 366/2/1 367/3/1 368/4/1
f 369/1/1 370/2/1 371/3/1 372/4/1
f 373/18/1 374/19/1 375/11/1 376/10/1
f 377/20/1 378/21/1 379/22/1 380/23/1
f 381/24/1 382/20/1 383/23/1 384/25/1
f 385/20/1 386/21/1 387/22/1 388/23/1
f 389/25/1 390/23/1 391/26/1 392/27/1
f 393/20/1 394/21/1 395/22/1 396/23/1
f 397/23/1 398/22/1 399/28/1 400/26/1
f 401/20/1 402/21/1 403/22/1 404/23/1
f 405/29/1 406/30/1 407/16/1 408/14/1
f 409/9/1 410/5/1 411/1/1 412/7/1
f 413/9/1 414/5/1 415/1/1 416/7/1
f 417/7/1 418/1/1 419/4/1 420/8/1
f 421/5/1 422/6/1 423/2/1 424/1/1
f 425/1/1 426/2/1 427/3/1 428/4/1
f 429/5/1 430/6/1 431/2/1 432/1/1
f 433/18/1 434/19/1 435/11/1 436/10/1
f 437/20/1 438/21/1 439/22/1 440/23/1
f 441/24/1 442/20/1 443/23/1 444/25/1
f 445/20/1 446/21/1 447/22/1 448/23/1
f 449/25/1 450/23/1 451/26/1 452/27/1
f 453/20/1 454/21/1 455/22/1 456/23/1
f 457/23/1 458/22/1 459/28/1 460/26/1
f 461/20/1 462/21/1 463/22/1 464/23/1
f 465/29/1 466/30/1 467/16/1 468/14/1
f 469/7/1 470/1/1 471/4/1 472/8/1
f 473/9/1 474/5/1 475/1/1 476/7/1
f 477/7/1 478/1/1 479/4/1 480/8/1
f 481/5/1 482/6/1 483/2/1 484/1/1
f 485/1/1 486/2/1 487/3/1 488/4/1
f 489/1/1 490/2/1 491/3/1 492/4/1
f 493/18/1 494/19/1 495/11/1 496/10/1
f 497/20/1 498/21/1 499/22/1 500/23/1
f 501/24/1 502/20/1 503/23/1 504/25/1
f 505/20/1 506/21/1 507/22/1 508/23/1
f 509/25/1 510/23/1 511/26/1 512/27/1
f 513/20/1 514/21/1 515/22/1 516/23/1
f 517/23/1 518/22/1 519/28/1 520/26/1
f 521/20/1 522/21/1 523/22/1 524/23/1
f 525/29/1 526/30/1 527/16/1 528/14/1
f 529/7/1 530/1/1 531/4/1 532/8/1
f 533/1/1 534/2/1 535/3/1 536/4/1
f 537/1/1 538/2/1 539/3/1 540/4/1
f 541/5/1 542/6/1 543/2/1 544/1/1
f 545/1/1 546/2/1 547/3/1 548/4/1
f 549/5/1 550/6/1 551/2/1 552/1/1
f 553/18/1 554/19/1 555/11/1 556/10/1
f 557/20/1 558/21/1 559/22/1 560/23/1
f 561/24/1 562/20/1 563/23/1 564/25/1
f 565/20/1 566/21/1 567/22/1 568/23/1
f 569/25/1 570/23/1 571/26/1 572/27/1
f 573/20/1 574/21/1 575/22/1 576/23/1
f 577/23/1 578/22/1 579/28/1 580/26/1
f 581/20/1 582/21/1 583/22/1 584/23/1
f 585/29/1 586/30/1 587/16/1 588/14/1
f 589/7/1 590/1/1 591/4/1 592/8/1
f 593/1/1 594/2/1 595/3/1 596/4/1
f 597/1/1 598/2/1 599/3/1 600/4/1
f 601/5/1 602/6/1 603/2/1 604/1/1
f 605/5/1 606/6/1 607/2/1 608/1/1
f 609/1/1 610/2/1 611/3/1 612/4/1
f 613/18/1 614/19/1 615/11/1 616/10/1
f 617/20/1 618/21/1 619/22/1 620/23/1
f 621/24/1 622/20/1 623/23/1 624/25/1
f 625/20/1 626/21/1 627/22/1 628/23/1
f 629/25/1 630/23/1 631/26/1 632/27/1
f 633/20/1 634/21/1 635/22/1 636/23/1
f 637/23/1 638/22/1 639/28/1 640/26/1
f 641/20/1 642/21/1 643/22/1 644/23/1
f 645/29/1 646/30/1 647/16/1 648/14/1
f 649/7/1 650/1/1 651/4/1 652/8/1
f 653/1/1 654/2/1 655/3/1 656/4/1
f 657/1/1 658/2/1 659/3/1 660/4/1
f 661/9/1 662/5/1 663/1/1 664/7/1
f 665/5/1 666/6/1 667/2/1 668/1/1
f 669/1/1 670/2/1 671/3/1 672/4/1
f 673/18/1 674/19/1 675/11/1 676/10/1
f 677/20/1 678/21/1 679/22/1 680/23/1
f 681/24/1 682/20/1 683/23/1 684/25/1
f 685/20/1 686/21/1 687/22/1 688/23/1
f 689/25/1 690/23/1 691/26/1 692/27/1
f 693/20/1 694/21/1 695/22/1 696/23/1
f 697/23/1 698/22/1 699/28/1 700/26/1
f 701/20/1 702/21/1 703/22/1 704/23/1
f 705/29/1 706/30/1 707/16/1 708/14/1
f 709/7/1 710/1/1 711/4/1 712/8/1
f 713/1/1 714/2/1 715/3/1 716/4/1
f 717/1/1 718/2/1 719/3/1 720/4/1
f 721/9/1 722/5/1 723/1/1 724/7/1
f 725/5/1 726/6/1 727/2/1 728/1/1
f 729/1/1 730/2/1 731/3/1 732/4/1
f 733/18/1 734/19/1 735/11/1 736/10/1
f 737/20/1 738/21/1 739/22/1 740/23/1
f 741/24/1 742/20/1 743/23/1 744/25/1
f 745/20/1 746/21/1 747/22/1 748/23/1
f 749/25/1 750/23/1 751/26/1 752/27/1
f 753/20/1 754/21/1 755/22/1 756/23/1
f 757/23/1 758/22/1 759/28/1 760/26/1
f 761/20/1 762/21/1 763/22/1 764/23/1
f 765/29/1 766/30/1 767/16/1 768/14/1
f 769/7/1 770/1/1 771/4/1 772/8/1
f 773/1/1 774/2/1 775/3/1 776/4/1
f 777/1/1 778/2/1 779/3/1 780/4/1
f 781/9/1 782/5/1 783/1/1 784/7/1
f 785/5/1 786/6/1 787/2/1 788/1/1
f 789/1/1 790/2/1 791/3/1 792/4/1
f 793/18/1 794/19/1 795/11/1 796/10/1
f 797/20/1 798/21/1 799/22/1 800/23/1
f 801/24/1 802/20/1 803/23/1 804/25/1
f 805/20/1 806/21/1 807/22/1 808/23/1
f 809/25/1 810/23/1 811/26/1 812/27/1
f 813/20/1 814/21/1 815/22/1 816/23/1
f 817/23/1 818/22/1 819/28/1 820/26/1
f 821/20/1 822/21/1 823/22/1 824/23/1
f 825/29/1 826/30/1 827/16/1 828/14/1
f 829/9/1 830/5/1 831/1/1 832/7/1
f 833/7/1 834/1/1 835/4/1 836/8/1
f 837/1/1 838/2/1 839/3/1 840/4/1
f 841/9/1 842/5/1 843/1/1 844/7/1
f 845/5/1 846/6/1 847/2/1 848/1/1
f 849/1/1 850/2/1 851/3/1 852/4/1
f 853/18/1 854/19/1 855/11/1 856/10/1
f 857/20/1 858/21/1 859/22/1 860/23/1
f 861/24/1 862/20/1 863/23/1 864/25/1
f 865/20/1 866/21/1 867/22/1 868/23/1
f 869/25/1 870/23/1 871/26/1 872/27/1
f 873/20/1 874/21/1 875/22/1 876/23/1
f 877/23/1 878/22/1 879/28/1 880/26/1
f 881/20/1 882/21/1 883/22/1 884/23/1
f 885/29/1 886/30/1 887/16/1 888/14/1
f 889/7/1 890/1/1 891/4/1 892/8/1
f 893/7/1 894/1/1 895/4/1 896/8/1
f 897/1/1 898/2/1 899/3/1 900/4/1
f 901/9/1 902/5/1 903/1/1 904/7/1
f 905/5/1 906/6/1 907/2/1 908/1/1
f 909/1/1 910/2/1 911/3/1 912/4/1
f 913/18/1 914/19/1 915/11/1 916/10/1
f 917/20/1 918/21/1 919/22/1 920/23/1
f 921/24/1 922/20/1 923/23/1 924/25/1
f 925/20/1 926/21/1 927/22/1 928/23/1
f 929/25/1 930/23/1 931/26/1 932/27/1
f 933/20/1 934/21/1 935/22/1 936/23/1
f 937/23/1 938/22/1 939/28/1 940/26/1
f 941/20/1 942/21/1 943/22/1 944/23/1
f 945/29/1 946/30/1 947/16/1 948/14/1
f 949/9/1 950/5/1 951/1/1 952/7/1
f 953/7/1 954/1/1 955/4/1 956/8/1
f 957/1/1 958/2/1 959/3/1 960/4/1
f 961/5/1 962/6/1 963/2/1 964/1/1
f 965/7/1 966/1/1 967/4/1 968/8/1
f 969/1/1 970/2/1 971/3/1 972/4/1
f 973/18/1 974/19/1 975/11/1 976/10/1
f 977/20/1 978/21/1 979/22/1 980/23/1
f 981/24/1 982/20/1 983/23/1 984/25/1
f 985/20/1 986/21/1 987/22/1 988/23/1
f 989/25/1 990/23/1 991/26/1 992/27/1
f 993/20/1 994/21/1 995/22/1 996/23/1
f 997/23/1 998/22/1 999/28/1 1000/26/1
f 1001/20/1 1002/21/1 1003/22/1 1004/23/1
f 1005/29/1 1006/30/1 1007/16/1 1008/14/1
f 1009/9/1 1010/5/1 1011/1/1 1012/7/1
f 1013/7/1 1014/1/1 1015/4/1 1016/8/1
f 1017/1/1 1018/2/1 1019/3/1 1020/4/1
f 1021/5/1 1022/6/1 1023/2/1 1024/1/1
f 1025/7/1 1026/1/1 1027/4/1 1028/8/1
f 1029/1/1 1030/2/1 1031/3/1 1032/4/1
f 1033/31/1 1034/32/1 1035/19/1 1036/18/1
f 1037/32/1 1038/33/1 1039/29/1 1040/19/1
f 1041/32/1 1042/33/1 1043/29/1 1044/19/1
f 1045/32/1 1046/33/1 1047/29/1 1048/19/1
f 1049/32/1 1050/33/1 1051/29/1 1052/19/1
f 1053/32/1 1054/33/1 1055/29/1 1056/19/1
f 1057/32/1 1058/33/1 1059/29/1 1060/19/1
f 1061/32/1 1062/33/1 1063/29/1 1064/19/1
f 1065/7/1 1066/1/1 1067/4/1 1068/8/1
f 1069/7/1 1070/1/1 1071/4/1 1072/8/1
f 1073/7/1 1074/1/1 1075/4/1 1076/8/1
f 1077/1/1 1078/2/1 1079/3/1 1080/4/1
f 1081/5/1 1082/6/1 1083/2/1 1084/1/1
f 1085/7/1 1086/1/1 1087/4/1 1088/8/1
f 1089/7/1 1090/1/1 1091/4/1 1092/8/1
f 1093/7/1 1094/1/1 1095/4/1 1096/8/1
f 1097/7/1 1098/1/1 1099/4/1 1100/8/1
f 1101/7/1 1102/1/1 1103/4/1 1104/8/1
f 1105/1/1 1106/2/1 1107/3/1 1108/4/1
f 1109/1/1 1110/2/1 1111/3/1 1112/4/1
f 1113/1/1 1114/2/1 1115/3/1 1116/4/1
f 1117/1/1 1118/2/1 1119/3/1 1120/4/1
f 1121/1/1 1122/2/1 1123/3/1 1124/4/1
f 1125/1/1 1126/2/1 1127/3/1 1128/4/1
f 1129/1/1 1130/2/1 1131/3/1 1132/4/1
f 1133/1/1 1134/2/1 1135/3/1 1136/4/1
f 1137/1/1 1138/2/1 1139/3/1 1140/4/1
f 1141/1/1 1142/2/1 1143/3/1 1144/4/1
f 1145/1/1 1146/2/1 1147/3/1 1148/4/1
f 1149/1/1 1150/2/1 1151/3/1 1152/4/1
f 1153/1/1 1154/2/1 1155/3/1 1156/4/1
f 1157/1/1 1158/2/1 1159/3/1 1160/4/1
f 1161/1/1 1162/2/1 1163/3/1 1164/4/1
f 1165/1/1 1166/2/1 1167/3/1 1168/4/1
f 1169/1/1 1170/2/1 1171/3/1 1172/4/1
f 1173/1/1 1174/2/1 1175/3/1 1176/4/1
f 1177/1/1 1178/2/1 1179/3/1 1180/4/1
f 1181/1/1 1182/2/1 1183/3/1 1184/4/1
f 1185/1/1 1186/2/1 1187/3/1 1188/4/1
f 1189/1/1 1190/2/1 1191/3/1 1192/4/1
f 1193/1/1 1194/2/1 1195/3/1 1196/4/1
f 1197/1/1 1198/2/1 1199/3/1 1200/4/1

