# Tiled2Unity generated file. Do not modify by hand.
# Wavefront file for 'mapa1_mesh_0005.obj'

# Vertices (Count = 256)
v -24 -3 0
v -25 -3 0
v -25 -2 0
v -24 -2 0
v -24 -5 0
v -25 -5 0
v -25 -4 0
v -24 -4 0
v -20 -6 0
v -21 -6 0
v -21 -5 0
v -20 -5 0
v -33 -6 0
v -34 -6 0
v -34 -5 0
v -33 -5 0
v -33 -7 0
v -34 -7 0
v -34 -6 0
v -33 -6 0
v -33 -8 0
v -34 -8 0
v -34 -7 0
v -33 -7 0
v -22 -9 0
v -23 -9 0
v -23 -8 0
v -22 -8 0
v -33 -9 0
v -34 -9 0
v -34 -8 0
v -33 -8 0
v -33 -10 0
v -34 -10 0
v -34 -9 0
v -33 -9 0
v -24 -14 0
v -25 -14 0
v -25 -13 0
v -24 -13 0
v -24 -17 0
v -25 -17 0
v -25 -16 0
v -24 -16 0
v -20 -18 0
v -21 -18 0
v -21 -17 0
v -20 -17 0
v -21 -20 0
v -22 -20 0
v -22 -19 0
v -21 -19 0
v -18 -21 0
v -19 -21 0
v -19 -20 0
v -18 -20 0
v -19 -21 0
v -20 -21 0
v -20 -20 0
v -19 -20 0
v -20 -21 0
v -21 -21 0
v -21 -20 0
v -20 -20 0
v -21 -21 0
v -22 -21 0
v -22 -20 0
v -21 -20 0
v -22 -21 0
v -23 -21 0
v -23 -20 0
v -22 -20 0
v -23 -21 0
v -24 -21 0
v -24 -20 0
v -23 -20 0
v -24 -21 0
v -25 -21 0
v -25 -20 0
v -24 -20 0
v -25 -21 0
v -26 -21 0
v -26 -20 0
v -25 -20 0
v -46 -21 0
v -47 -21 0
v -47 -20 0
v -46 -20 0
v -18 -22 0
v -19 -22 0
v -19 -21 0
v -18 -21 0
v -19 -22 0
v -20 -22 0
v -20 -21 0
v -19 -21 0
v -20 -22 0
v -21 -22 0
v -21 -21 0
v -20 -21 0
v -21 -22 0
v -22 -22 0
v -22 -21 0
v -21 -21 0
v -22 -22 0
v -23 -22 0
v -23 -21 0
v -22 -21 0
v -23 -22 0
v -24 -22 0
v -24 -21 0
v -23 -21 0
v -24 -22 0
v -25 -22 0
v -25 -21 0
v -24 -21 0
v -25 -22 0
v -26 -22 0
v -26 -21 0
v -25 -21 0
v -55 -22 0
v -56 -22 0
v -56 -21 0
v -55 -21 0
v -18 -23 0
v -19 -23 0
v -19 -22 0
v -18 -22 0
v -19 -23 0
v -20 -23 0
v -20 -22 0
v -19 -22 0
v -20 -23 0
v -21 -23 0
v -21 -22 0
v -20 -22 0
v -21 -23 0
v -22 -23 0
v -22 -22 0
v -21 -22 0
v -22 -23 0
v -23 -23 0
v -23 -22 0
v -22 -22 0
v -23 -23 0
v -24 -23 0
v -24 -22 0
v -23 -22 0
v -24 -23 0
v -25 -23 0
v -25 -22 0
v -24 -22 0
v -25 -23 0
v -26 -23 0
v -26 -22 0
v -25 -22 0
v -36 -23 0
v -37 -23 0
v -37 -22 0
v -36 -22 0
v -50 -23 0
v -51 -23 0
v -51 -22 0
v -50 -22 0
v -53 -23 0
v -54 -23 0
v -54 -22 0
v -53 -22 0
v -40 -24 0
v -41 -24 0
v -41 -23 0
v -40 -23 0
v -51 -24 0
v -52 -24 0
v -52 -23 0
v -51 -23 0
v -55 -24 0
v -56 -24 0
v -56 -23 0
v -55 -23 0
v -22 -25 0
v -23 -25 0
v -23 -24 0
v -22 -24 0
v -51 -25 0
v -52 -25 0
v -52 -24 0
v -51 -24 0
v -55 -25 0
v -56 -25 0
v -56 -24 0
v -55 -24 0
v -23 -26 0
v -24 -26 0
v -24 -25 0
v -23 -25 0
v -45 -27 0
v -46 -27 0
v -46 -26 0
v -45 -26 0
v -55 -29 0
v -56 -29 0
v -56 -28 0
v -55 -28 0
v -23 -31 0
v -24 -31 0
v -24 -30 0
v -23 -30 0
v -39 -32 0
v -40 -32 0
v -40 -31 0
v -39 -31 0
v -20 -33 0
v -21 -33 0
v -21 -32 0
v -20 -32 0
v -24 -33 0
v -25 -33 0
v -25 -32 0
v -24 -32 0
v -20 -35 0
v -21 -35 0
v -21 -34 0
v -20 -34 0
v -54 -35 0
v -55 -35 0
v -55 -34 0
v -54 -34 0
v -23 -36 0
v -24 -36 0
v -24 -35 0
v -23 -35 0
v -20 -37 0
v -21 -37 0
v -21 -36 0
v -20 -36 0
v -20 -40 0
v -21 -40 0
v -21 -39 0
v -20 -39 0
v -23 -40 0
v -24 -40 0
v -24 -39 0
v -23 -39 0
v -21 -44 0
v -22 -44 0
v -22 -43 0
v -21 -43 0
v -22 -46 0
v -23 -46 0
v -23 -45 0
v -22 -45 0
v -25 -47 0
v -26 -47 0
v -26 -46 0
v -25 -46 0

# Texture cooridinates (Count = 69)
vt 0.075 0.9166667
vt 0.1 0.9166667
vt 0.1 0.9444444
vt 0.075 0.9444444
vt 0.075 0.9722222
vt 0.1 0.9722222
vt 0.1 1
vt 0.075 1
vt 0.125 0.9722222
vt 0.125 1
vt 0.35 0.1666667
vt 0.375 0.1666667
vt 0.375 0.1944444
vt 0.35 0.1944444
vt 0.35 0.1388889
vt 0.375 0.1388889
vt 0.05 0.9166667
vt 0.05 0.9444444
vt 0.025 0.9444444
vt 0.05 0.9722222
vt 0.025 0.9722222
vt 0.15 0.9722222
vt 0.15 1
vt 0.05 1
vt 0.2 0.8055556
vt 0.225 0.8055556
vt 0.225 0.8333333
vt 0.2 0.8333333
vt 0.25 0.8055556
vt 0.25 0.8333333
vt 0.275 0.8055556
vt 0.275 0.8333333
vt 0 0.75
vt 0.025 0.75
vt 0.025 0.7777778
vt 0 0.7777778
vt 0.2 0.7777778
vt 0.225 0.7777778
vt 0.25 0.7777778
vt 0.275 0.7777778
vt 0.2 0.75
vt 0.225 0.75
vt 0.25 0.75
vt 0.275 0.75
vt 0.925 0.75
vt 0.95 0.75
vt 0.95 0.7777778
vt 0.925 0.7777778
vt 0.925 0.7222222
vt 0.95 0.7222222
vt 0.1 0.8611111
vt 0.125 0.8611111
vt 0.125 0.8888889
vt 0.1 0.8888889
vt 0.075 0.6388889
vt 0.1 0.6388889
vt 0.1 0.6666666
vt 0.075 0.6666666
vt 0.075 0.8611111
vt 0.075 0.8888889
vt 0.125 0.9166667
vt 0.3 0.6944444
vt 0.325 0.6944444
vt 0.325 0.7222222
vt 0.3 0.7222222
vt 0.35 0.6944444
vt 0.375 0.6944444
vt 0.375 0.7222222
vt 0.35 0.7222222

# Normal
vn 0 0 -1

# Mesh description
g mapa1_mesh_0005

# Faces
f 1/1/1 2/2/1 3/3/1 4/4/1
f 5/5/1 6/6/1 7/7/1 8/8/1
f 9/6/1 10/9/1 11/10/1 12/7/1
f 13/11/1 14/12/1 15/13/1 16/14/1
f 17/15/1 18/16/1 19/12/1 20/11/1
f 21/15/1 22/16/1 23/12/1 24/11/1
f 25/17/1 26/1/1 27/4/1 28/18/1
f 29/15/1 30/16/1 31/12/1 32/11/1
f 33/15/1 34/16/1 35/12/1 36/11/1
f 37/19/1 38/18/1 39/20/1 40/21/1
f 41/9/1 42/22/1 43/23/1 44/10/1
f 45/20/1 46/5/1 47/8/1 48/24/1
f 49/19/1 50/18/1 51/20/1 52/21/1
f 53/25/1 54/26/1 55/27/1 56/28/1
f 57/26/1 58/29/1 59/30/1 60/27/1
f 61/26/1 62/29/1 63/30/1 64/27/1
f 65/26/1 66/29/1 67/30/1 68/27/1
f 69/26/1 70/29/1 71/30/1 72/27/1
f 73/26/1 74/29/1 75/30/1 76/27/1
f 77/26/1 78/29/1 79/30/1 80/27/1
f 81/29/1 82/31/1 83/32/1 84/30/1
f 85/33/1 86/34/1 87/35/1 88/36/1
f 89/37/1 90/38/1 91/26/1 92/25/1
f 93/38/1 94/39/1 95/29/1 96/26/1
f 97/38/1 98/39/1 99/29/1 100/26/1
f 101/38/1 102/39/1 103/29/1 104/26/1
f 105/38/1 106/39/1 107/29/1 108/26/1
f 109/38/1 110/39/1 111/29/1 112/26/1
f 113/38/1 114/39/1 115/29/1 116/26/1
f 117/39/1 118/40/1 119/31/1 120/29/1
f 121/33/1 122/34/1 123/35/1 124/36/1
f 125/41/1 126/42/1 127/38/1 128/37/1
f 129/42/1 130/43/1 131/39/1 132/38/1
f 133/42/1 134/43/1 135/39/1 136/38/1
f 137/42/1 138/43/1 139/39/1 140/38/1
f 141/42/1 142/43/1 143/39/1 144/38/1
f 145/42/1 146/43/1 147/39/1 148/38/1
f 149/42/1 150/43/1 151/39/1 152/38/1
f 153/43/1 154/44/1 155/40/1 156/39/1
f 157/33/1 158/34/1 159/35/1 160/36/1
f 161/33/1 162/34/1 163/35/1 164/36/1
f 165/45/1 166/46/1 167/47/1 168/48/1
f 169/33/1 170/34/1 171/35/1 172/36/1
f 173/45/1 174/46/1 175/47/1 176/48/1
f 177/45/1 178/46/1 179/47/1 180/48/1
f 181/5/1 182/6/1 183/7/1 184/8/1
f 185/49/1 186/50/1 187/46/1 188/45/1
f 189/49/1 190/50/1 191/46/1 192/45/1
f 193/51/1 194/52/1 195/53/1 196/54/1
f 197/55/1 198/56/1 199/57/1 200/58/1
f 201/33/1 202/34/1 203/35/1 204/36/1
f 205/59/1 206/51/1 207/54/1 208/60/1
f 209/33/1 210/34/1 211/35/1 212/36/1
f 213/54/1 214/53/1 215/61/1 216/2/1
f 217/6/1 218/9/1 219/10/1 220/7/1
f 221/62/1 222/63/1 223/64/1 224/65/1
f 225/55/1 226/56/1 227/57/1 228/58/1
f 229/66/1 230/67/1 231/68/1 232/69/1
f 233/9/1 234/22/1 235/23/1 236/10/1
f 237/59/1 238/51/1 239/54/1 240/60/1
f 241/54/1 242/53/1 243/61/1 244/2/1
f 245/60/1 246/54/1 247/2/1 248/1/1
f 249/59/1 250/51/1 251/54/1 252/60/1
f 253/51/1 254/52/1 255/53/1 256/54/1

