# Tiled2Unity generated file. Do not modify by hand.
# Wavefront file for 'interiorcasa_mesh_0007.obj'

# Vertices (Count = 80)
v -12 -1 0
v -13 -1 0
v -13 0 0
v -12 0 0
v -6 -2 0
v -7 -2 0
v -7 -1 0
v -6 -1 0
v -12 -2 0
v -13 -2 0
v -13 -1 0
v -12 -1 0
v -4 -4 0
v -5 -4 0
v -5 -3 0
v -4 -3 0
v -2 -5 0
v -3 -5 0
v -3 -4 0
v -2 -4 0
v -4 -5 0
v -5 -5 0
v -5 -4 0
v -4 -4 0
v -6 -5 0
v -7 -5 0
v -7 -4 0
v -6 -4 0
v -2 -6 0
v -3 -6 0
v -3 -5 0
v -2 -5 0
v -3 -6 0
v -4 -6 0
v -4 -5 0
v -3 -5 0
v -5 -6 0
v -6 -6 0
v -6 -5 0
v -5 -5 0
v -6 -6 0
v -7 -6 0
v -7 -5 0
v -6 -5 0
v -2 -7 0
v -3 -7 0
v -3 -6 0
v -2 -6 0
v -6 -7 0
v -7 -7 0
v -7 -6 0
v -6 -6 0
v -3 -8 0
v -4 -8 0
v -4 -7 0
v -3 -7 0
v -4 -8 0
v -5 -8 0
v -5 -7 0
v -4 -7 0
v -5 -8 0
v -6 -8 0
v -6 -7 0
v -5 -7 0
v -4 -9 0
v -5 -9 0
v -5 -8 0
v -4 -8 0
v -13 -9 0
v -14 -9 0
v -14 -8 0
v -13 -8 0
v -4 -10 0
v -5 -10 0
v -5 -9 0
v -4 -9 0
v -13 -10 0
v -14 -10 0
v -14 -9 0
v -13 -9 0

# Texture cooridinates (Count = 40)
vt 0.1 0.36
vt 0.125 0.36
vt 0.125 0.4
vt 0.1 0.4
vt 0.25 0.72
vt 0.275 0.72
vt 0.275 0.76
vt 0.25 0.76
vt 0.1 0.32
vt 0.125 0.32
vt 0.375 0.8
vt 0.4 0.8
vt 0.4 0.84
vt 0.375 0.84
vt 0.425 0.8
vt 0.425 0.84
vt 0.3 0.72
vt 0.3 0.76
vt 0.45 0.8
vt 0.475 0.8
vt 0.475 0.84
vt 0.45 0.84
vt 0.4 0.76
vt 0.425 0.76
vt 0.325 0.72
vt 0.325 0.76
vt 0.35 0.72
vt 0.35 0.76
vt 0.45 0.76
vt 0.475 0.76
vt 0.4 0.72
vt 0.425 0.72
vt 0.45 0.72
vt 0.475 0.72
vt 0.2 0.48
vt 0.225 0.48
vt 0.225 0.52
vt 0.2 0.52
vt 0.2 0.44
vt 0.225 0.44

# Normal
vn 0 0 -1

# Mesh description
g interiorcasa_mesh_0007

# Faces
f 1/1/1 2/2/1 3/3/1 4/4/1
f 5/5/1 6/6/1 7/7/1 8/8/1
f 9/9/1 10/10/1 11/2/1 12/1/1
f 13/11/1 14/12/1 15/13/1 16/14/1
f 17/12/1 18/15/1 19/16/1 20/13/1
f 21/6/1 22/17/1 23/18/1 24/7/1
f 25/19/1 26/20/1 27/21/1 28/22/1
f 29/23/1 30/24/1 31/15/1 32/12/1
f 33/17/1 34/25/1 35/26/1 36/18/1
f 37/25/1 38/27/1 39/28/1 40/26/1
f 41/29/1 42/30/1 43/20/1 44/19/1
f 45/31/1 46/32/1 47/24/1 48/23/1
f 49/33/1 50/34/1 51/30/1 52/29/1
f 53/17/1 54/25/1 55/26/1 56/18/1
f 57/6/1 58/17/1 59/18/1 60/7/1
f 61/25/1 62/27/1 63/28/1 64/26/1
f 65/24/1 66/29/1 67/19/1 68/15/1
f 69/35/1 70/36/1 71/37/1 72/38/1
f 73/32/1 74/33/1 75/29/1 76/24/1
f 77/39/1 78/40/1 79/36/1 80/35/1

