# Tiled2Unity generated file. Do not modify by hand.
# Wavefront file for 'interiorcasa_mesh_0004.obj'

# Vertices (Count = 48)
v -8 -14 0
v -9 -14 0
v -9 -13 0
v -8 -13 0
v -4 -15 0
v -5 -15 0
v -5 -14 0
v -4 -14 0
v -5 -15 0
v -6 -15 0
v -6 -14 0
v -5 -14 0
v -7 -15 0
v -8 -15 0
v -8 -14 0
v -7 -14 0
v -10 -15 0
v -11 -15 0
v -11 -14 0
v -10 -14 0
v -11 -15 0
v -12 -15 0
v -12 -14 0
v -11 -14 0
v -4 -16 0
v -5 -16 0
v -5 -15 0
v -4 -15 0
v -5 -16 0
v -6 -16 0
v -6 -15 0
v -5 -15 0
v -7 -16 0
v -8 -16 0
v -8 -15 0
v -7 -15 0
v -8 -16 0
v -9 -16 0
v -9 -15 0
v -8 -15 0
v -10 -16 0
v -11 -16 0
v -11 -15 0
v -10 -15 0
v -11 -16 0
v -12 -16 0
v -12 -15 0
v -11 -15 0

# Texture cooridinates (Count = 24)
vt 0.1 0.96
vt 0.125 0.96
vt 0.125 1
vt 0.1 1
vt 0.225 0.8
vt 0.25 0.8
vt 0.25 0.84
vt 0.225 0.84
vt 0.275 0.8
vt 0.275 0.84
vt 0 0.36
vt 0.025 0.36
vt 0.025 0.4
vt 0 0.4
vt 0.225 0.76
vt 0.25 0.76
vt 0.275 0.76
vt 0.05 0.24
vt 0.075 0.24
vt 0.075 0.28
vt 0.05 0.28
vt 0.025 0.32
vt 0.05 0.32
vt 0.05 0.36

# Normal
vn 0 0 -1

# Mesh description
g interiorcasa_mesh_0004

# Faces
f 1/1/1 2/2/1 3/3/1 4/4/1
f 5/5/1 6/6/1 7/7/1 8/8/1
f 9/6/1 10/9/1 11/10/1 12/7/1
f 13/11/1 14/12/1 15/13/1 16/14/1
f 17/5/1 18/6/1 19/7/1 20/8/1
f 21/6/1 22/9/1 23/10/1 24/7/1
f 25/15/1 26/16/1 27/6/1 28/5/1
f 29/16/1 30/17/1 31/9/1 32/6/1
f 33/18/1 34/19/1 35/20/1 36/21/1
f 37/22/1 38/23/1 39/24/1 40/12/1
f 41/15/1 42/16/1 43/6/1 44/5/1
f 45/16/1 46/17/1 47/9/1 48/6/1

