# Tiled2Unity generated file. Do not modify by hand.
# Wavefront file for 'Interior-casa_mesh_0002.obj'

# Vertices (Count = 128)
v -1 -1 0
v -2 -1 0
v -2 0 0
v -1 0 0
v -2 -1 0
v -3 -1 0
v -3 0 0
v -2 0 0
v -1 -2 0
v -2 -2 0
v -2 -1 0
v -1 -1 0
v -2 -2 0
v -3 -2 0
v -3 -1 0
v -2 -1 0
v -7 -2 0
v -8 -2 0
v -8 -1 0
v -7 -1 0
v -8 -2 0
v -9 -2 0
v -9 -1 0
v -8 -1 0
v -1 -3 0
v -2 -3 0
v -2 -2 0
v -1 -2 0
v -2 -3 0
v -3 -3 0
v -3 -2 0
v -2 -2 0
v -7 -3 0
v -8 -3 0
v -8 -2 0
v -7 -2 0
v -8 -3 0
v -9 -3 0
v -9 -2 0
v -8 -2 0
v -7 -4 0
v -8 -4 0
v -8 -3 0
v -7 -3 0
v -8 -4 0
v -9 -4 0
v -9 -3 0
v -8 -3 0
v -3 -7 0
v -4 -7 0
v -4 -6 0
v -3 -6 0
v -4 -7 0
v -5 -7 0
v -5 -6 0
v -4 -6 0
v -5 -7 0
v -6 -7 0
v -6 -6 0
v -5 -6 0
v -6 -7 0
v -7 -7 0
v -7 -6 0
v -6 -6 0
v -9 -7 0
v -10 -7 0
v -10 -6 0
v -9 -6 0
v -3 -8 0
v -4 -8 0
v -4 -7 0
v -3 -7 0
v -4 -8 0
v -5 -8 0
v -5 -7 0
v -4 -7 0
v -5 -8 0
v -6 -8 0
v -6 -7 0
v -5 -7 0
v -6 -8 0
v -7 -8 0
v -7 -7 0
v -6 -7 0
v -2 -9 0
v -3 -9 0
v -3 -8 0
v -2 -8 0
v -3 -9 0
v -4 -9 0
v -4 -8 0
v -3 -8 0
v -4 -9 0
v -5 -9 0
v -5 -8 0
v -4 -8 0
v -5 -9 0
v -6 -9 0
v -6 -8 0
v -5 -8 0
v -6 -9 0
v -7 -9 0
v -7 -8 0
v -6 -8 0
v -2 -10 0
v -3 -10 0
v -3 -9 0
v -2 -9 0
v -3 -10 0
v -4 -10 0
v -4 -9 0
v -3 -9 0
v -4 -10 0
v -5 -10 0
v -5 -9 0
v -4 -9 0
v -5 -10 0
v -6 -10 0
v -6 -9 0
v -5 -9 0
v -6 -10 0
v -7 -10 0
v -7 -9 0
v -6 -9 0
v -7 -10 0
v -8 -10 0
v -8 -9 0
v -7 -9 0

# Texture cooridinates (Count = 53)
vt 0.3 0.56
vt 0.325 0.56
vt 0.325 0.6
vt 0.3 0.6
vt 0.35 0.56
vt 0.35 0.6
vt 0.3 0.52
vt 0.325 0.52
vt 0.35 0.52
vt 0.425 0.92
vt 0.45 0.92
vt 0.45 0.96
vt 0.425 0.96
vt 0.475 0.92
vt 0.475 0.96
vt 0.3 0.48
vt 0.325 0.48
vt 0.35 0.48
vt 0.425 0.88
vt 0.45 0.88
vt 0.475 0.88
vt 0.425 0.84
vt 0.45 0.84
vt 0.475 0.84
vt 0 0.68
vt 0.025 0.68
vt 0.025 0.72
vt 0 0.72
vt 0.05 0.68
vt 0.05 0.72
vt 0.075 0.68
vt 0.075 0.72
vt 0.025 0.76
vt 0 0.76
vt 0 0.64
vt 0.025 0.64
vt 0.05 0.64
vt 0.075 0.64
vt 0 0.36
vt 0.025 0.36
vt 0.025 0.4
vt 0 0.4
vt 0.05 0.36
vt 0.05 0.4
vt 0.225 0.8
vt 0.25 0.8
vt 0.25 0.84
vt 0.225 0.84
vt 0.275 0.8
vt 0.275 0.84
vt 0 0.32
vt 0.025 0.32
vt 0.05 0.32

# Normal
vn 0 0 -1

# Mesh description
g Interior-casa_mesh_0002

# Faces
f 1/1/1 2/2/1 3/3/1 4/4/1
f 5/2/1 6/5/1 7/6/1 8/3/1
f 9/7/1 10/8/1 11/2/1 12/1/1
f 13/8/1 14/9/1 15/5/1 16/2/1
f 17/10/1 18/11/1 19/12/1 20/13/1
f 21/11/1 22/14/1 23/15/1 24/12/1
f 25/16/1 26/17/1 27/8/1 28/7/1
f 29/17/1 30/18/1 31/9/1 32/8/1
f 33/19/1 34/20/1 35/11/1 36/10/1
f 37/20/1 38/21/1 39/14/1 40/11/1
f 41/22/1 42/23/1 43/20/1 44/19/1
f 45/23/1 46/24/1 47/21/1 48/20/1
f 49/25/1 50/26/1 51/27/1 52/28/1
f 53/26/1 54/29/1 55/30/1 56/27/1
f 57/26/1 58/29/1 59/30/1 60/27/1
f 61/29/1 62/31/1 63/32/1 64/30/1
f 65/28/1 66/27/1 67/33/1 68/34/1
f 69/35/1 70/36/1 71/26/1 72/25/1
f 73/36/1 74/37/1 75/29/1 76/26/1
f 77/36/1 78/37/1 79/29/1 80/26/1
f 81/37/1 82/38/1 83/31/1 84/29/1
f 85/28/1 86/27/1 87/33/1 88/34/1
f 89/35/1 90/36/1 91/26/1 92/25/1
f 93/39/1 94/40/1 95/41/1 96/42/1
f 97/40/1 98/43/1 99/44/1 100/41/1
f 101/37/1 102/38/1 103/31/1 104/29/1
f 105/45/1 106/46/1 107/47/1 108/48/1
f 109/46/1 110/49/1 111/50/1 112/47/1
f 113/51/1 114/52/1 115/40/1 116/39/1
f 117/52/1 118/53/1 119/43/1 120/40/1
f 121/45/1 122/46/1 123/47/1 124/48/1
f 125/46/1 126/49/1 127/50/1 128/47/1

