# Tiled2Unity generated file. Do not modify by hand.
# Wavefront file for 'Interior-casa_mesh_0003.obj'

# Vertices (Count = 72)
v -4 -1 0
v -5 -1 0
v -5 0 0
v -4 0 0
v -6 -1 0
v -7 -1 0
v -7 0 0
v -6 0 0
v -4 -2 0
v -5 -2 0
v -5 -1 0
v -4 -1 0
v -6 -2 0
v -7 -2 0
v -7 -1 0
v -6 -1 0
v -1 -4 0
v -2 -4 0
v -2 -3 0
v -1 -3 0
v -4 -4 0
v -5 -4 0
v -5 -3 0
v -4 -3 0
v -1 -5 0
v -2 -5 0
v -2 -4 0
v -1 -4 0
v -2 -5 0
v -3 -5 0
v -3 -4 0
v -2 -4 0
v -3 -5 0
v -4 -5 0
v -4 -4 0
v -3 -4 0
v -4 -5 0
v -5 -5 0
v -5 -4 0
v -4 -4 0
v -1 -6 0
v -2 -6 0
v -2 -5 0
v -1 -5 0
v -2 -6 0
v -3 -6 0
v -3 -5 0
v -2 -5 0
v -3 -6 0
v -4 -6 0
v -4 -5 0
v -3 -5 0
v -4 -6 0
v -5 -6 0
v -5 -5 0
v -4 -5 0
v -8 -6 0
v -9 -6 0
v -9 -5 0
v -8 -5 0
v -8 -7 0
v -9 -7 0
v -9 -6 0
v -8 -6 0
v -8 -8 0
v -9 -8 0
v -9 -7 0
v -8 -7 0
v -8 -9 0
v -9 -9 0
v -9 -8 0
v -8 -8 0

# Texture cooridinates (Count = 53)
vt 0.1 0.36
vt 0.125 0.36
vt 0.125 0.4
vt 0.1 0.4
vt 0.05 0.56
vt 0.075 0.56
vt 0.075 0.6
vt 0.05 0.6
vt 0.1 0.32
vt 0.125 0.32
vt 0.05 0.52
vt 0.075 0.52
vt 0.4 0.8
vt 0.425 0.8
vt 0.425 0.84
vt 0.4 0.84
vt 0.45 0.8
vt 0.475 0.8
vt 0.475 0.84
vt 0.45 0.84
vt 0.4 0.76
vt 0.425 0.76
vt 0.325 0.92
vt 0.35 0.92
vt 0.35 0.96
vt 0.325 0.96
vt 0.375 0.92
vt 0.4 0.92
vt 0.4 0.96
vt 0.375 0.96
vt 0.45 0.76
vt 0.475 0.76
vt 0.4 0.72
vt 0.425 0.72
vt 0.325 0.84
vt 0.35 0.84
vt 0.35 0.88
vt 0.325 0.88
vt 0.375 0.84
vt 0.4 0.88
vt 0.375 0.88
vt 0.45 0.72
vt 0.475 0.72
vt 0.15 0.48
vt 0.175 0.48
vt 0.175 0.52
vt 0.15 0.52
vt 0.15 0.44
vt 0.175 0.44
vt 0.15 0.4
vt 0.175 0.4
vt 0.15 0.36
vt 0.175 0.36

# Normal
vn 0 0 -1

# Mesh description
g Interior-casa_mesh_0003

# Faces
f 1/1/1 2/2/1 3/3/1 4/4/1
f 5/5/1 6/6/1 7/7/1 8/8/1
f 9/9/1 10/10/1 11/2/1 12/1/1
f 13/11/1 14/12/1 15/6/1 16/5/1
f 17/13/1 18/14/1 19/15/1 20/16/1
f 21/17/1 22/18/1 23/19/1 24/20/1
f 25/21/1 26/22/1 27/14/1 28/13/1
f 29/23/1 30/24/1 31/25/1 32/26/1
f 33/27/1 34/28/1 35/29/1 36/30/1
f 37/31/1 38/32/1 39/18/1 40/17/1
f 41/33/1 42/34/1 43/22/1 44/21/1
f 45/35/1 46/36/1 47/37/1 48/38/1
f 49/39/1 50/16/1 51/40/1 52/41/1
f 53/42/1 54/43/1 55/32/1 56/31/1
f 57/44/1 58/45/1 59/46/1 60/47/1
f 61/48/1 62/49/1 63/45/1 64/44/1
f 65/50/1 66/51/1 67/49/1 68/48/1
f 69/52/1 70/53/1 71/51/1 72/50/1

