# Tiled2Unity generated file. Do not modify by hand.
# Wavefront file for 'Interior-casa_mesh_0004.obj'

# Vertices (Count = 32)
v -8 -1 0
v -9 -1 0
v -9 0 0
v -8 0 0
v 0 -2 0
v -1 -2 0
v -1 -1 0
v 0 -1 0
v -4 -2 0
v -5 -2 0
v -5 -1 0
v -4 -1 0
v -5 -2 0
v -6 -2 0
v -6 -1 0
v -5 -1 0
v -3 -4 0
v -4 -4 0
v -4 -3 0
v -3 -3 0
v -6 -5 0
v -7 -5 0
v -7 -4 0
v -6 -4 0
v -8 -7 0
v -9 -7 0
v -9 -6 0
v -8 -6 0
v 0 -8 0
v -1 -8 0
v -1 -7 0
v 0 -7 0

# Texture cooridinates (Count = 12)
vt 0 0.72
vt 0.025 0.72
vt 0.025 0.76
vt 0 0.76
vt 0.325 0.64
vt 0.35 0.64
vt 0.35 0.68
vt 0.325 0.68
vt 0.275 0.56
vt 0.3 0.56
vt 0.3 0.6
vt 0.275 0.6

# Normal
vn 0 0 -1

# Mesh description
g Interior-casa_mesh_0004

# Faces
f 1/1/1 2/2/1 3/3/1 4/4/1
f 5/1/1 6/2/1 7/3/1 8/4/1
f 9/5/1 10/6/1 11/7/1 12/8/1
f 13/1/1 14/2/1 15/3/1 16/4/1
f 17/1/1 18/2/1 19/3/1 20/4/1
f 21/1/1 22/2/1 23/3/1 24/4/1
f 25/9/1 26/10/1 27/11/1 28/12/1
f 29/1/1 30/2/1 31/3/1 32/4/1

