# Tiled2Unity generated file. Do not modify by hand.
# Wavefront file for 'Mar_mesh_0003.obj'

# Vertices (Count = 656)
v -17 -1 0
v -18 -1 0
v -18 0 0
v -17 0 0
v -17 -2 0
v -18 -2 0
v -18 -1 0
v -17 -1 0
v -17 -3 0
v -18 -3 0
v -18 -2 0
v -17 -2 0
v -17 -4 0
v -18 -4 0
v -18 -3 0
v -17 -3 0
v -17 -5 0
v -18 -5 0
v -18 -4 0
v -17 -4 0
v -17 -6 0
v -18 -6 0
v -18 -5 0
v -17 -5 0
v 0 -7 0
v -1 -7 0
v -1 -6 0
v 0 -6 0
v -1 -7 0
v -2 -7 0
v -2 -6 0
v -1 -6 0
v -2 -7 0
v -3 -7 0
v -3 -6 0
v -2 -6 0
v -3 -7 0
v -4 -7 0
v -4 -6 0
v -3 -6 0
v -17 -7 0
v -18 -7 0
v -18 -6 0
v -17 -6 0
v 0 -8 0
v -1 -8 0
v -1 -7 0
v 0 -7 0
v -1 -8 0
v -2 -8 0
v -2 -7 0
v -1 -7 0
v -2 -8 0
v -3 -8 0
v -3 -7 0
v -2 -7 0
v -3 -8 0
v -4 -8 0
v -4 -7 0
v -3 -7 0
v -17 -8 0
v -18 -8 0
v -18 -7 0
v -17 -7 0
v 0 -9 0
v -1 -9 0
v -1 -8 0
v 0 -8 0
v -1 -9 0
v -2 -9 0
v -2 -8 0
v -1 -8 0
v -2 -9 0
v -3 -9 0
v -3 -8 0
v -2 -8 0
v -3 -9 0
v -4 -9 0
v -4 -8 0
v -3 -8 0
v -4 -9 0
v -5 -9 0
v -5 -8 0
v -4 -8 0
v -5 -9 0
v -6 -9 0
v -6 -8 0
v -5 -8 0
v -6 -9 0
v -7 -9 0
v -7 -8 0
v -6 -8 0
v -7 -9 0
v -8 -9 0
v -8 -8 0
v -7 -8 0
v -8 -9 0
v -9 -9 0
v -9 -8 0
v -8 -8 0
v -9 -9 0
v -10 -9 0
v -10 -8 0
v -9 -8 0
v -10 -9 0
v -11 -9 0
v -11 -8 0
v -10 -8 0
v -11 -9 0
v -12 -9 0
v -12 -8 0
v -11 -8 0
v -12 -9 0
v -13 -9 0
v -13 -8 0
v -12 -8 0
v -13 -9 0
v -14 -9 0
v -14 -8 0
v -13 -8 0
v -14 -9 0
v -15 -9 0
v -15 -8 0
v -14 -8 0
v -15 -9 0
v -16 -9 0
v -16 -8 0
v -15 -8 0
v -16 -9 0
v -17 -9 0
v -17 -8 0
v -16 -8 0
v -17 -9 0
v -18 -9 0
v -18 -8 0
v -17 -8 0
v 0 -10 0
v -1 -10 0
v -1 -9 0
v 0 -9 0
v -1 -10 0
v -2 -10 0
v -2 -9 0
v -1 -9 0
v -2 -10 0
v -3 -10 0
v -3 -9 0
v -2 -9 0
v -3 -10 0
v -4 -10 0
v -4 -9 0
v -3 -9 0
v -4 -10 0
v -5 -10 0
v -5 -9 0
v -4 -9 0
v -5 -10 0
v -6 -10 0
v -6 -9 0
v -5 -9 0
v -6 -10 0
v -7 -10 0
v -7 -9 0
v -6 -9 0
v -7 -10 0
v -8 -10 0
v -8 -9 0
v -7 -9 0
v -8 -10 0
v -9 -10 0
v -9 -9 0
v -8 -9 0
v -9 -10 0
v -10 -10 0
v -10 -9 0
v -9 -9 0
v -10 -10 0
v -11 -10 0
v -11 -9 0
v -10 -9 0
v -11 -10 0
v -12 -10 0
v -12 -9 0
v -11 -9 0
v -12 -10 0
v -13 -10 0
v -13 -9 0
v -12 -9 0
v -13 -10 0
v -14 -10 0
v -14 -9 0
v -13 -9 0
v -14 -10 0
v -15 -10 0
v -15 -9 0
v -14 -9 0
v -15 -10 0
v -16 -10 0
v -16 -9 0
v -15 -9 0
v -16 -10 0
v -17 -10 0
v -17 -9 0
v -16 -9 0
v -17 -10 0
v -18 -10 0
v -18 -9 0
v -17 -9 0
v 0 -11 0
v -1 -11 0
v -1 -10 0
v 0 -10 0
v -1 -11 0
v -2 -11 0
v -2 -10 0
v -1 -10 0
v -2 -11 0
v -3 -11 0
v -3 -10 0
v -2 -10 0
v -3 -11 0
v -4 -11 0
v -4 -10 0
v -3 -10 0
v -4 -11 0
v -5 -11 0
v -5 -10 0
v -4 -10 0
v -5 -11 0
v -6 -11 0
v -6 -10 0
v -5 -10 0
v -6 -11 0
v -7 -11 0
v -7 -10 0
v -6 -10 0
v -7 -11 0
v -8 -11 0
v -8 -10 0
v -7 -10 0
v -8 -11 0
v -9 -11 0
v -9 -10 0
v -8 -10 0
v -9 -11 0
v -10 -11 0
v -10 -10 0
v -9 -10 0
v -10 -11 0
v -11 -11 0
v -11 -10 0
v -10 -10 0
v -11 -11 0
v -12 -11 0
v -12 -10 0
v -11 -10 0
v -12 -11 0
v -13 -11 0
v -13 -10 0
v -12 -10 0
v -13 -11 0
v -14 -11 0
v -14 -10 0
v -13 -10 0
v -14 -11 0
v -15 -11 0
v -15 -10 0
v -14 -10 0
v -15 -11 0
v -16 -11 0
v -16 -10 0
v -15 -10 0
v -16 -11 0
v -17 -11 0
v -17 -10 0
v -16 -10 0
v -17 -11 0
v -18 -11 0
v -18 -10 0
v -17 -10 0
v 0 -12 0
v -1 -12 0
v -1 -11 0
v 0 -11 0
v -1 -12 0
v -2 -12 0
v -2 -11 0
v -1 -11 0
v -2 -12 0
v -3 -12 0
v -3 -11 0
v -2 -11 0
v -3 -12 0
v -4 -12 0
v -4 -11 0
v -3 -11 0
v -4 -12 0
v -5 -12 0
v -5 -11 0
v -4 -11 0
v -5 -12 0
v -6 -12 0
v -6 -11 0
v -5 -11 0
v -6 -12 0
v -7 -12 0
v -7 -11 0
v -6 -11 0
v -7 -12 0
v -8 -12 0
v -8 -11 0
v -7 -11 0
v -8 -12 0
v -9 -12 0
v -9 -11 0
v -8 -11 0
v -9 -12 0
v -10 -12 0
v -10 -11 0
v -9 -11 0
v -10 -12 0
v -11 -12 0
v -11 -11 0
v -10 -11 0
v -11 -12 0
v -12 -12 0
v -12 -11 0
v -11 -11 0
v -12 -12 0
v -13 -12 0
v -13 -11 0
v -12 -11 0
v -13 -12 0
v -14 -12 0
v -14 -11 0
v -13 -11 0
v -14 -12 0
v -15 -12 0
v -15 -11 0
v -14 -11 0
v -15 -12 0
v -16 -12 0
v -16 -11 0
v -15 -11 0
v -16 -12 0
v -17 -12 0
v -17 -11 0
v -16 -11 0
v -17 -12 0
v -18 -12 0
v -18 -11 0
v -17 -11 0
v 0 -13 0
v -1 -13 0
v -1 -12 0
v 0 -12 0
v -1 -13 0
v -2 -13 0
v -2 -12 0
v -1 -12 0
v -2 -13 0
v -3 -13 0
v -3 -12 0
v -2 -12 0
v -3 -13 0
v -4 -13 0
v -4 -12 0
v -3 -12 0
v -4 -13 0
v -5 -13 0
v -5 -12 0
v -4 -12 0
v -5 -13 0
v -6 -13 0
v -6 -12 0
v -5 -12 0
v -6 -13 0
v -7 -13 0
v -7 -12 0
v -6 -12 0
v -7 -13 0
v -8 -13 0
v -8 -12 0
v -7 -12 0
v -8 -13 0
v -9 -13 0
v -9 -12 0
v -8 -12 0
v -9 -13 0
v -10 -13 0
v -10 -12 0
v -9 -12 0
v -10 -13 0
v -11 -13 0
v -11 -12 0
v -10 -12 0
v -11 -13 0
v -12 -13 0
v -12 -12 0
v -11 -12 0
v -12 -13 0
v -13 -13 0
v -13 -12 0
v -12 -12 0
v -13 -13 0
v -14 -13 0
v -14 -12 0
v -13 -12 0
v -14 -13 0
v -15 -13 0
v -15 -12 0
v -14 -12 0
v -15 -13 0
v -16 -13 0
v -16 -12 0
v -15 -12 0
v -16 -13 0
v -17 -13 0
v -17 -12 0
v -16 -12 0
v -17 -13 0
v -18 -13 0
v -18 -12 0
v -17 -12 0
v 0 -14 0
v -1 -14 0
v -1 -13 0
v 0 -13 0
v -1 -14 0
v -2 -14 0
v -2 -13 0
v -1 -13 0
v -2 -14 0
v -3 -14 0
v -3 -13 0
v -2 -13 0
v -3 -14 0
v -4 -14 0
v -4 -13 0
v -3 -13 0
v -4 -14 0
v -5 -14 0
v -5 -13 0
v -4 -13 0
v -5 -14 0
v -6 -14 0
v -6 -13 0
v -5 -13 0
v -6 -14 0
v -7 -14 0
v -7 -13 0
v -6 -13 0
v -7 -14 0
v -8 -14 0
v -8 -13 0
v -7 -13 0
v -8 -14 0
v -9 -14 0
v -9 -13 0
v -8 -13 0
v -9 -14 0
v -10 -14 0
v -10 -13 0
v -9 -13 0
v -10 -14 0
v -11 -14 0
v -11 -13 0
v -10 -13 0
v -11 -14 0
v -12 -14 0
v -12 -13 0
v -11 -13 0
v -12 -14 0
v -13 -14 0
v -13 -13 0
v -12 -13 0
v -13 -14 0
v -14 -14 0
v -14 -13 0
v -13 -13 0
v -14 -14 0
v -15 -14 0
v -15 -13 0
v -14 -13 0
v -15 -14 0
v -16 -14 0
v -16 -13 0
v -15 -13 0
v -16 -14 0
v -17 -14 0
v -17 -13 0
v -16 -13 0
v -17 -14 0
v -18 -14 0
v -18 -13 0
v -17 -13 0
v -3 -15 0
v -4 -15 0
v -4 -14 0
v -3 -14 0
v -4 -15 0
v -5 -15 0
v -5 -14 0
v -4 -14 0
v -5 -15 0
v -6 -15 0
v -6 -14 0
v -5 -14 0
v -6 -15 0
v -7 -15 0
v -7 -14 0
v -6 -14 0
v -7 -15 0
v -8 -15 0
v -8 -14 0
v -7 -14 0
v -8 -15 0
v -9 -15 0
v -9 -14 0
v -8 -14 0
v -9 -15 0
v -10 -15 0
v -10 -14 0
v -9 -14 0
v -10 -15 0
v -11 -15 0
v -11 -14 0
v -10 -14 0
v -11 -15 0
v -12 -15 0
v -12 -14 0
v -11 -14 0
v -12 -15 0
v -13 -15 0
v -13 -14 0
v -12 -14 0
v -13 -15 0
v -14 -15 0
v -14 -14 0
v -13 -14 0
v -14 -15 0
v -15 -15 0
v -15 -14 0
v -14 -14 0
v -15 -15 0
v -16 -15 0
v -16 -14 0
v -15 -14 0
v -16 -15 0
v -17 -15 0
v -17 -14 0
v -16 -14 0
v -17 -15 0
v -18 -15 0
v -18 -14 0
v -17 -14 0
v -17 -16 0
v -18 -16 0
v -18 -15 0
v -17 -15 0
v -18 -16 0
v -19 -16 0
v -19 -15 0
v -18 -15 0
v -18 -17 0
v -19 -17 0
v -19 -16 0
v -18 -16 0
v -19 -17 0
v -20 -17 0
v -20 -16 0
v -19 -16 0
v -20 -17 0
v -21 -17 0
v -21 -16 0
v -20 -16 0
v -21 -17 0
v -22 -17 0
v -22 -16 0
v -21 -16 0
v -3 -18 0
v -4 -18 0
v -4 -17 0
v -3 -17 0
v -4 -18 0
v -5 -18 0
v -5 -17 0
v -4 -17 0
v -5 -18 0
v -6 -18 0
v -6 -17 0
v -5 -17 0
v -6 -18 0
v -7 -18 0
v -7 -17 0
v -6 -17 0
v -21 -18 0
v -22 -18 0
v -22 -17 0
v -21 -17 0
v -22 -18 0
v -23 -18 0
v -23 -17 0
v -22 -17 0
v -23 -18 0
v -24 -18 0
v -24 -17 0
v -23 -17 0
v -24 -18 0
v -25 -18 0
v -25 -17 0
v -24 -17 0
v -3 -19 0
v -4 -19 0
v -4 -18 0
v -3 -18 0
v -4 -19 0
v -5 -19 0
v -5 -18 0
v -4 -18 0
v -5 -19 0
v -6 -19 0
v -6 -18 0
v -5 -18 0
v -6 -19 0
v -7 -19 0
v -7 -18 0
v -6 -18 0
v -24 -19 0
v -25 -19 0
v -25 -18 0
v -24 -18 0
v -3 -20 0
v -4 -20 0
v -4 -19 0
v -3 -19 0
v -4 -20 0
v -5 -20 0
v -5 -19 0
v -4 -19 0
v -5 -20 0
v -6 -20 0
v -6 -19 0
v -5 -19 0
v -6 -20 0
v -7 -20 0
v -7 -19 0
v -6 -19 0
v -24 -20 0
v -25 -20 0
v -25 -19 0
v -24 -19 0
v -25 -20 0
v -26 -20 0
v -26 -19 0
v -25 -19 0

# Texture cooridinates (Count = 63)
vt 0.05 0.7777778
vt 0.075 0.7777778
vt 0.075 0.8055556
vt 0.05 0.8055556
vt 0.275 0.8333333
vt 0.3 0.8333333
vt 0.3 0.8611111
vt 0.275 0.8611111
vt 0.325 0.8333333
vt 0.325 0.8611111
vt 0.1 0.7222222
vt 0.125 0.7222222
vt 0.125 0.75
vt 0.1 0.75
vt 0.1 0.6944444
vt 0.125 0.6944444
vt 0.1 0.6666666
vt 0.125 0.6666666
vt 0.15 0.6666666
vt 0.15 0.6944444
vt 0.225 0.5
vt 0.25 0.5
vt 0.25 0.5277778
vt 0.225 0.5277778
vt 0.1 0.6388889
vt 0.125 0.6388889
vt 0.15 0.6388889
vt 0.225 0.4722222
vt 0.25 0.4722222
vt 0.1 0.6111111
vt 0.125 0.6111111
vt 0.15 0.6111111
vt 0.225 0.4444444
vt 0.25 0.4444444
vt 0.275 0.8055556
vt 0.3 0.8055556
vt 0.325 0.8055556
vt 0.1 0.5833334
vt 0.125 0.5833334
vt 0.15 0.5833334
vt 0.225 0.4166667
vt 0.25 0.4166667
vt 0.1 0.5555556
vt 0.125 0.5555556
vt 0.15 0.5555556
vt 0.225 0.3888889
vt 0.25 0.3888889
vt 0.05 0.75
vt 0.075 0.75
vt 0.075 0.7222222
vt 0.1 0.7777778
vt 0 0.8888889
vt 0.025 0.8888889
vt 0.025 0.9166667
vt 0 0.9166667
vt 0.05 0.8888889
vt 0.05 0.9166667
vt 0.075 0.8888889
vt 0.075 0.9166667
vt 0 0.8611111
vt 0.025 0.8611111
vt 0.05 0.8611111
vt 0.075 0.8611111

# Normal
vn 0 0 -1

# Mesh description
g Mar_mesh_0003

# Faces
f 1/1/1 2/2/1 3/3/1 4/4/1
f 5/1/1 6/2/1 7/3/1 8/4/1
f 9/1/1 10/2/1 11/3/1 12/4/1
f 13/1/1 14/2/1 15/3/1 16/4/1
f 17/1/1 18/2/1 19/3/1 20/4/1
f 21/1/1 22/2/1 23/3/1 24/4/1
f 25/5/1 26/6/1 27/7/1 28/8/1
f 29/6/1 30/9/1 31/10/1 32/7/1
f 33/6/1 34/9/1 35/10/1 36/7/1
f 37/11/1 38/12/1 39/13/1 40/14/1
f 41/1/1 42/2/1 43/3/1 44/4/1
f 45/5/1 46/6/1 47/7/1 48/8/1
f 49/6/1 50/9/1 51/10/1 52/7/1
f 53/6/1 54/9/1 55/10/1 56/7/1
f 57/15/1 58/16/1 59/12/1 60/11/1
f 61/1/1 62/2/1 63/3/1 64/4/1
f 65/5/1 66/6/1 67/7/1 68/8/1
f 69/6/1 70/9/1 71/10/1 72/7/1
f 73/6/1 74/9/1 75/10/1 76/7/1
f 77/17/1 78/18/1 79/16/1 80/15/1
f 81/18/1 82/19/1 83/20/1 84/16/1
f 85/18/1 86/19/1 87/20/1 88/16/1
f 89/18/1 90/19/1 91/20/1 92/16/1
f 93/18/1 94/19/1 95/20/1 96/16/1
f 97/18/1 98/19/1 99/20/1 100/16/1
f 101/18/1 102/19/1 103/20/1 104/16/1
f 105/18/1 106/19/1 107/20/1 108/16/1
f 109/18/1 110/19/1 111/20/1 112/16/1
f 113/18/1 114/19/1 115/20/1 116/16/1
f 117/18/1 118/19/1 119/20/1 120/16/1
f 121/18/1 122/19/1 123/20/1 124/16/1
f 125/18/1 126/19/1 127/20/1 128/16/1
f 129/18/1 130/19/1 131/20/1 132/16/1
f 133/21/1 134/22/1 135/23/1 136/24/1
f 137/5/1 138/6/1 139/7/1 140/8/1
f 141/6/1 142/9/1 143/10/1 144/7/1
f 145/6/1 146/9/1 147/10/1 148/7/1
f 149/25/1 150/26/1 151/18/1 152/17/1
f 153/26/1 154/27/1 155/19/1 156/18/1
f 157/26/1 158/27/1 159/19/1 160/18/1
f 161/26/1 162/27/1 163/19/1 164/18/1
f 165/26/1 166/27/1 167/19/1 168/18/1
f 169/26/1 170/27/1 171/19/1 172/18/1
f 173/26/1 174/27/1 175/19/1 176/18/1
f 177/26/1 178/27/1 179/19/1 180/18/1
f 181/26/1 182/27/1 183/19/1 184/18/1
f 185/26/1 186/27/1 187/19/1 188/18/1
f 189/26/1 190/27/1 191/19/1 192/18/1
f 193/26/1 194/27/1 195/19/1 196/18/1
f 197/26/1 198/27/1 199/19/1 200/18/1
f 201/26/1 202/27/1 203/19/1 204/18/1
f 205/28/1 206/29/1 207/22/1 208/21/1
f 209/5/1 210/6/1 211/7/1 212/8/1
f 213/6/1 214/9/1 215/10/1 216/7/1
f 217/6/1 218/9/1 219/10/1 220/7/1
f 221/30/1 222/31/1 223/26/1 224/25/1
f 225/31/1 226/32/1 227/27/1 228/26/1
f 229/26/1 230/27/1 231/19/1 232/18/1
f 233/26/1 234/27/1 235/19/1 236/18/1
f 237/26/1 238/27/1 239/19/1 240/18/1
f 241/26/1 242/27/1 243/19/1 244/18/1
f 245/26/1 246/27/1 247/19/1 248/18/1
f 249/26/1 250/27/1 251/19/1 252/18/1
f 253/26/1 254/27/1 255/19/1 256/18/1
f 257/31/1 258/32/1 259/27/1 260/26/1
f 261/26/1 262/27/1 263/19/1 264/18/1
f 265/26/1 266/27/1 267/19/1 268/18/1
f 269/31/1 270/32/1 271/27/1 272/26/1
f 273/31/1 274/32/1 275/27/1 276/26/1
f 277/33/1 278/34/1 279/29/1 280/28/1
f 281/5/1 282/6/1 283/7/1 284/8/1
f 285/6/1 286/9/1 287/10/1 288/7/1
f 289/6/1 290/9/1 291/10/1 292/7/1
f 293/30/1 294/31/1 295/26/1 296/25/1
f 297/26/1 298/27/1 299/19/1 300/18/1
f 301/26/1 302/27/1 303/19/1 304/18/1
f 305/31/1 306/32/1 307/27/1 308/26/1
f 309/31/1 310/32/1 311/27/1 312/26/1
f 313/31/1 314/32/1 315/27/1 316/26/1
f 317/31/1 318/32/1 319/27/1 320/26/1
f 321/31/1 322/32/1 323/27/1 324/26/1
f 325/31/1 326/32/1 327/27/1 328/26/1
f 329/26/1 330/27/1 331/19/1 332/18/1
f 333/31/1 334/32/1 335/27/1 336/26/1
f 337/31/1 338/32/1 339/27/1 340/26/1
f 341/31/1 342/32/1 343/27/1 344/26/1
f 345/31/1 346/32/1 347/27/1 348/26/1
f 349/33/1 350/34/1 351/29/1 352/28/1
f 353/5/1 354/6/1 355/7/1 356/8/1
f 357/6/1 358/9/1 359/10/1 360/7/1
f 361/6/1 362/9/1 363/10/1 364/7/1
f 365/30/1 366/31/1 367/26/1 368/25/1
f 369/31/1 370/32/1 371/27/1 372/26/1
f 373/31/1 374/32/1 375/27/1 376/26/1
f 377/31/1 378/32/1 379/27/1 380/26/1
f 381/31/1 382/32/1 383/27/1 384/26/1
f 385/31/1 386/32/1 387/27/1 388/26/1
f 389/31/1 390/32/1 391/27/1 392/26/1
f 393/31/1 394/32/1 395/27/1 396/26/1
f 397/31/1 398/32/1 399/27/1 400/26/1
f 401/31/1 402/32/1 403/27/1 404/26/1
f 405/31/1 406/32/1 407/27/1 408/26/1
f 409/31/1 410/32/1 411/27/1 412/26/1
f 413/31/1 414/32/1 415/27/1 416/26/1
f 417/31/1 418/32/1 419/27/1 420/26/1
f 421/33/1 422/34/1 423/29/1 424/28/1
f 425/35/1 426/36/1 427/6/1 428/5/1
f 429/36/1 430/37/1 431/9/1 432/6/1
f 433/36/1 434/37/1 435/9/1 436/6/1
f 437/38/1 438/39/1 439/31/1 440/30/1
f 441/39/1 442/40/1 443/32/1 444/31/1
f 445/39/1 446/40/1 447/32/1 448/31/1
f 449/39/1 450/40/1 451/32/1 452/31/1
f 453/39/1 454/40/1 455/32/1 456/31/1
f 457/39/1 458/40/1 459/32/1 460/31/1
f 461/39/1 462/40/1 463/32/1 464/31/1
f 465/39/1 466/40/1 467/32/1 468/31/1
f 469/39/1 470/40/1 471/32/1 472/31/1
f 473/39/1 474/40/1 475/32/1 476/31/1
f 477/39/1 478/40/1 479/32/1 480/31/1
f 481/39/1 482/40/1 483/32/1 484/31/1
f 485/39/1 486/40/1 487/32/1 488/31/1
f 489/39/1 490/40/1 491/32/1 492/31/1
f 493/41/1 494/42/1 495/34/1 496/33/1
f 497/43/1 498/44/1 499/39/1 500/38/1
f 501/44/1 502/45/1 503/40/1 504/39/1
f 505/44/1 506/45/1 507/40/1 508/39/1
f 509/44/1 510/45/1 511/40/1 512/39/1
f 513/44/1 514/45/1 515/40/1 516/39/1
f 517/44/1 518/45/1 519/40/1 520/39/1
f 521/44/1 522/45/1 523/40/1 524/39/1
f 525/44/1 526/45/1 527/40/1 528/39/1
f 529/44/1 530/45/1 531/40/1 532/39/1
f 533/44/1 534/45/1 535/40/1 536/39/1
f 537/44/1 538/45/1 539/40/1 540/39/1
f 541/44/1 542/45/1 543/40/1 544/39/1
f 545/44/1 546/45/1 547/40/1 548/39/1
f 549/44/1 550/45/1 551/40/1 552/39/1
f 553/46/1 554/47/1 555/42/1 556/41/1
f 557/48/1 558/49/1 559/2/1 560/1/1
f 561/50/1 562/11/1 563/14/1 564/49/1
f 565/48/1 566/49/1 567/2/1 568/1/1
f 569/49/1 570/14/1 571/51/1 572/2/1
f 573/49/1 574/14/1 575/51/1 576/2/1
f 577/50/1 578/11/1 579/14/1 580/49/1
f 581/52/1 582/53/1 583/54/1 584/55/1
f 585/53/1 586/56/1 587/57/1 588/54/1
f 589/53/1 590/56/1 591/57/1 592/54/1
f 593/56/1 594/58/1 595/59/1 596/57/1
f 597/48/1 598/49/1 599/2/1 600/1/1
f 601/49/1 602/14/1 603/51/1 604/2/1
f 605/49/1 606/14/1 607/51/1 608/2/1
f 609/50/1 610/11/1 611/14/1 612/49/1
f 613/60/1 614/61/1 615/53/1 616/52/1
f 617/61/1 618/62/1 619/56/1 620/53/1
f 621/61/1 622/62/1 623/56/1 624/53/1
f 625/62/1 626/63/1 627/58/1 628/56/1
f 629/1/1 630/2/1 631/3/1 632/4/1
f 633/60/1 634/61/1 635/53/1 636/52/1
f 637/61/1 638/62/1 639/56/1 640/53/1
f 641/61/1 642/62/1 643/56/1 644/53/1
f 645/62/1 646/63/1 647/58/1 648/56/1
f 649/48/1 650/49/1 651/2/1 652/1/1
f 653/50/1 654/11/1 655/14/1 656/49/1

