# Tiled2Unity generated file. Do not modify by hand.
# Wavefront file for 'casa-abandonada_mesh_0004.obj'

# Vertices (Count = 616)
v 0 -1 0
v -1 -1 0
v -1 0 0
v 0 0 0
v -1 -1 0
v -2 -1 0
v -2 0 0
v -1 0 0
v -2 -1 0
v -3 -1 0
v -3 0 0
v -2 0 0
v -3 -1 0
v -4 -1 0
v -4 0 0
v -3 0 0
v -4 -1 0
v -5 -1 0
v -5 0 0
v -4 0 0
v -5 -1 0
v -6 -1 0
v -6 0 0
v -5 0 0
v -6 -1 0
v -7 -1 0
v -7 0 0
v -6 0 0
v -7 -1 0
v -8 -1 0
v -8 0 0
v -7 0 0
v -8 -1 0
v -9 -1 0
v -9 0 0
v -8 0 0
v -9 -1 0
v -10 -1 0
v -10 0 0
v -9 0 0
v -10 -1 0
v -11 -1 0
v -11 0 0
v -10 0 0
v -11 -1 0
v -12 -1 0
v -12 0 0
v -11 0 0
v -12 -1 0
v -13 -1 0
v -13 0 0
v -12 0 0
v -13 -1 0
v -14 -1 0
v -14 0 0
v -13 0 0
v -14 -1 0
v -15 -1 0
v -15 0 0
v -14 0 0
v -15 -1 0
v -16 -1 0
v -16 0 0
v -15 0 0
v -16 -1 0
v -17 -1 0
v -17 0 0
v -16 0 0
v -17 -1 0
v -18 -1 0
v -18 0 0
v -17 0 0
v -18 -1 0
v -19 -1 0
v -19 0 0
v -18 0 0
v -19 -1 0
v -20 -1 0
v -20 0 0
v -19 0 0
v -20 -1 0
v -21 -1 0
v -21 0 0
v -20 0 0
v -21 -1 0
v -22 -1 0
v -22 0 0
v -21 0 0
v -22 -1 0
v -23 -1 0
v -23 0 0
v -22 0 0
v -23 -1 0
v -24 -1 0
v -24 0 0
v -23 0 0
v -24 -1 0
v -25 -1 0
v -25 0 0
v -24 0 0
v -25 -1 0
v -26 -1 0
v -26 0 0
v -25 0 0
v -26 -1 0
v -27 -1 0
v -27 0 0
v -26 0 0
v -27 -1 0
v -28 -1 0
v -28 0 0
v -27 0 0
v -28 -1 0
v -29 -1 0
v -29 0 0
v -28 0 0
v -29 -1 0
v -30 -1 0
v -30 0 0
v -29 0 0
v 0 -2 0
v -1 -2 0
v -1 -1 0
v 0 -1 0
v -1 -2 0
v -2 -2 0
v -2 -1 0
v -1 -1 0
v -8 -2 0
v -9 -2 0
v -9 -1 0
v -8 -1 0
v -9 -2 0
v -10 -2 0
v -10 -1 0
v -9 -1 0
v -10 -2 0
v -11 -2 0
v -11 -1 0
v -10 -1 0
v -11 -2 0
v -12 -2 0
v -12 -1 0
v -11 -1 0
v -12 -2 0
v -13 -2 0
v -13 -1 0
v -12 -1 0
v -13 -2 0
v -14 -2 0
v -14 -1 0
v -13 -1 0
v -14 -2 0
v -15 -2 0
v -15 -1 0
v -14 -1 0
v -15 -2 0
v -16 -2 0
v -16 -1 0
v -15 -1 0
v -16 -2 0
v -17 -2 0
v -17 -1 0
v -16 -1 0
v -26 -2 0
v -27 -2 0
v -27 -1 0
v -26 -1 0
v -27 -2 0
v -28 -2 0
v -28 -1 0
v -27 -1 0
v -28 -2 0
v -29 -2 0
v -29 -1 0
v -28 -1 0
v -29 -2 0
v -30 -2 0
v -30 -1 0
v -29 -1 0
v 0 -3 0
v -1 -3 0
v -1 -2 0
v 0 -2 0
v -1 -3 0
v -2 -3 0
v -2 -2 0
v -1 -2 0
v -11 -3 0
v -12 -3 0
v -12 -2 0
v -11 -2 0
v -12 -3 0
v -13 -3 0
v -13 -2 0
v -12 -2 0
v -13 -3 0
v -14 -3 0
v -14 -2 0
v -13 -2 0
v -14 -3 0
v -15 -3 0
v -15 -2 0
v -14 -2 0
v -29 -3 0
v -30 -3 0
v -30 -2 0
v -29 -2 0
v 0 -4 0
v -1 -4 0
v -1 -3 0
v 0 -3 0
v -29 -4 0
v -30 -4 0
v -30 -3 0
v -29 -3 0
v 0 -5 0
v -1 -5 0
v -1 -4 0
v 0 -4 0
v -29 -5 0
v -30 -5 0
v -30 -4 0
v -29 -4 0
v 0 -6 0
v -1 -6 0
v -1 -5 0
v 0 -5 0
v -1 -6 0
v -2 -6 0
v -2 -5 0
v -1 -5 0
v -29 -6 0
v -30 -6 0
v -30 -5 0
v -29 -5 0
v 0 -7 0
v -1 -7 0
v -1 -6 0
v 0 -6 0
v -1 -7 0
v -2 -7 0
v -2 -6 0
v -1 -6 0
v -28 -7 0
v -29 -7 0
v -29 -6 0
v -28 -6 0
v -29 -7 0
v -30 -7 0
v -30 -6 0
v -29 -6 0
v 0 -8 0
v -1 -8 0
v -1 -7 0
v 0 -7 0
v -1 -8 0
v -2 -8 0
v -2 -7 0
v -1 -7 0
v -28 -8 0
v -29 -8 0
v -29 -7 0
v -28 -7 0
v -29 -8 0
v -30 -8 0
v -30 -7 0
v -29 -7 0
v 0 -9 0
v -1 -9 0
v -1 -8 0
v 0 -8 0
v -1 -9 0
v -2 -9 0
v -2 -8 0
v -1 -8 0
v -28 -9 0
v -29 -9 0
v -29 -8 0
v -28 -8 0
v -29 -9 0
v -30 -9 0
v -30 -8 0
v -29 -8 0
v 0 -10 0
v -1 -10 0
v -1 -9 0
v 0 -9 0
v -1 -10 0
v -2 -10 0
v -2 -9 0
v -1 -9 0
v -29 -10 0
v -30 -10 0
v -30 -9 0
v -29 -9 0
v 0 -11 0
v -1 -11 0
v -1 -10 0
v 0 -10 0
v -1 -11 0
v -2 -11 0
v -2 -10 0
v -1 -10 0
v 0 -12 0
v -1 -12 0
v -1 -11 0
v 0 -11 0
v -29 -12 0
v -30 -12 0
v -30 -11 0
v -29 -11 0
v 0 -13 0
v -1 -13 0
v -1 -12 0
v 0 -12 0
v -29 -13 0
v -30 -13 0
v -30 -12 0
v -29 -12 0
v 0 -14 0
v -1 -14 0
v -1 -13 0
v 0 -13 0
v -28 -14 0
v -29 -14 0
v -29 -13 0
v -28 -13 0
v -29 -14 0
v -30 -14 0
v -30 -13 0
v -29 -13 0
v 0 -15 0
v -1 -15 0
v -1 -14 0
v 0 -14 0
v -26 -15 0
v -27 -15 0
v -27 -14 0
v -26 -14 0
v -27 -15 0
v -28 -15 0
v -28 -14 0
v -27 -14 0
v -28 -15 0
v -29 -15 0
v -29 -14 0
v -28 -14 0
v -29 -15 0
v -30 -15 0
v -30 -14 0
v -29 -14 0
v 0 -16 0
v -1 -16 0
v -1 -15 0
v 0 -15 0
v -26 -16 0
v -27 -16 0
v -27 -15 0
v -26 -15 0
v -27 -16 0
v -28 -16 0
v -28 -15 0
v -27 -15 0
v -28 -16 0
v -29 -16 0
v -29 -15 0
v -28 -15 0
v -29 -16 0
v -30 -16 0
v -30 -15 0
v -29 -15 0
v -26 -17 0
v -27 -17 0
v -27 -16 0
v -26 -16 0
v -27 -17 0
v -28 -17 0
v -28 -16 0
v -27 -16 0
v -28 -17 0
v -29 -17 0
v -29 -16 0
v -28 -16 0
v -29 -17 0
v -30 -17 0
v -30 -16 0
v -29 -16 0
v 0 -18 0
v -1 -18 0
v -1 -17 0
v 0 -17 0
v -27 -18 0
v -28 -18 0
v -28 -17 0
v -27 -17 0
v -28 -18 0
v -29 -18 0
v -29 -17 0
v -28 -17 0
v -29 -18 0
v -30 -18 0
v -30 -17 0
v -29 -17 0
v 0 -19 0
v -1 -19 0
v -1 -18 0
v 0 -18 0
v -1 -19 0
v -2 -19 0
v -2 -18 0
v -1 -18 0
v -28 -19 0
v -29 -19 0
v -29 -18 0
v -28 -18 0
v -29 -19 0
v -30 -19 0
v -30 -18 0
v -29 -18 0
v 0 -20 0
v -1 -20 0
v -1 -19 0
v 0 -19 0
v -1 -20 0
v -2 -20 0
v -2 -19 0
v -1 -19 0
v -28 -20 0
v -29 -20 0
v -29 -19 0
v -28 -19 0
v -29 -20 0
v -30 -20 0
v -30 -19 0
v -29 -19 0
v 0 -21 0
v -1 -21 0
v -1 -20 0
v 0 -20 0
v -1 -21 0
v -2 -21 0
v -2 -20 0
v -1 -20 0
v -29 -21 0
v -30 -21 0
v -30 -20 0
v -29 -20 0
v 0 -22 0
v -1 -22 0
v -1 -21 0
v 0 -21 0
v -1 -22 0
v -2 -22 0
v -2 -21 0
v -1 -21 0
v 0 -23 0
v -1 -23 0
v -1 -22 0
v 0 -22 0
v -1 -23 0
v -2 -23 0
v -2 -22 0
v -1 -22 0
v 0 -24 0
v -1 -24 0
v -1 -23 0
v 0 -23 0
v -1 -24 0
v -2 -24 0
v -2 -23 0
v -1 -23 0
v -28 -24 0
v -29 -24 0
v -29 -23 0
v -28 -23 0
v -29 -24 0
v -30 -24 0
v -30 -23 0
v -29 -23 0
v 0 -25 0
v -1 -25 0
v -1 -24 0
v 0 -24 0
v -1 -25 0
v -2 -25 0
v -2 -24 0
v -1 -24 0
v 0 -26 0
v -1 -26 0
v -1 -25 0
v 0 -25 0
v -1 -26 0
v -2 -26 0
v -2 -25 0
v -1 -25 0
v 0 -27 0
v -1 -27 0
v -1 -26 0
v 0 -26 0
v -1 -27 0
v -2 -27 0
v -2 -26 0
v -1 -26 0
v -6 -27 0
v -7 -27 0
v -7 -26 0
v -6 -26 0
v -7 -27 0
v -8 -27 0
v -8 -26 0
v -7 -26 0
v -8 -27 0
v -9 -27 0
v -9 -26 0
v -8 -26 0
v -14 -27 0
v -15 -27 0
v -15 -26 0
v -14 -26 0
v -28 -27 0
v -29 -27 0
v -29 -26 0
v -28 -26 0
v -29 -27 0
v -30 -27 0
v -30 -26 0
v -29 -26 0
v 0 -28 0
v -1 -28 0
v -1 -27 0
v 0 -27 0
v -1 -28 0
v -2 -28 0
v -2 -27 0
v -1 -27 0
v -2 -28 0
v -3 -28 0
v -3 -27 0
v -2 -27 0
v -6 -28 0
v -7 -28 0
v -7 -27 0
v -6 -27 0
v -7 -28 0
v -8 -28 0
v -8 -27 0
v -7 -27 0
v -8 -28 0
v -9 -28 0
v -9 -27 0
v -8 -27 0
v 0 -29 0
v -1 -29 0
v -1 -28 0
v 0 -28 0
v -1 -29 0
v -2 -29 0
v -2 -28 0
v -1 -28 0
v -2 -29 0
v -3 -29 0
v -3 -28 0
v -2 -28 0
v -6 -29 0
v -7 -29 0
v -7 -28 0
v -6 -28 0
v -7 -29 0
v -8 -29 0
v -8 -28 0
v -7 -28 0
v -8 -29 0
v -9 -29 0
v -9 -28 0
v -8 -28 0
v -16 -29 0
v -17 -29 0
v -17 -28 0
v -16 -28 0
v 0 -30 0
v -1 -30 0
v -1 -29 0
v 0 -29 0
v -1 -30 0
v -2 -30 0
v -2 -29 0
v -1 -29 0
v -2 -30 0
v -3 -30 0
v -3 -29 0
v -2 -29 0
v -6 -30 0
v -7 -30 0
v -7 -29 0
v -6 -29 0
v -7 -30 0
v -8 -30 0
v -8 -29 0
v -7 -29 0
v -8 -30 0
v -9 -30 0
v -9 -29 0
v -8 -29 0
v -9 -30 0
v -10 -30 0
v -10 -29 0
v -9 -29 0
v -11 -30 0
v -12 -30 0
v -12 -29 0
v -11 -29 0
v -23 -30 0
v -24 -30 0
v -24 -29 0
v -23 -29 0

# Texture cooridinates (Count = 41)
vt 0.05 0.5277778
vt 0.075 0.5277778
vt 0.075 0.5555556
vt 0.05 0.5555556
vt 0.1 0.4444444
vt 0.125 0.4444444
vt 0.125 0.4722222
vt 0.1 0.4722222
vt 0.15 0.4444444
vt 0.15 0.4722222
vt 0.075 0.4444444
vt 0.075 0.4722222
vt 0.125 0.5
vt 0.15 0.5
vt 0.15 0.5277778
vt 0.125 0.5277778
vt 0.175 0.5
vt 0.175 0.5277778
vt 0.175 0.4722222
vt 0.2 0.4722222
vt 0.2 0.5
vt 0.1 0.5277778
vt 0.125 0.5555556
vt 0.1 0.5555556
vt 0.175 0.5555556
vt 0.15 0.5555556
vt 0 0.4444444
vt 0.025 0.4444444
vt 0.025 0.4722222
vt 0 0.4722222
vt 0.1 0.5
vt 0.075 0.9722222
vt 0.1 0.9722222
vt 0.1 1
vt 0.075 1
vt 0.125 0.9722222
vt 0.125 1
vt 0.15 0.9722222
vt 0.15 1
vt 0.05 0.9722222
vt 0.05 1

# Normal
vn 0 0 -1

# Mesh description
g casa-abandonada_mesh_0004

# Faces
f 1/1/1 2/2/1 3/3/1 4/4/1
f 5/5/1 6/6/1 7/7/1 8/8/1
f 9/6/1 10/9/1 11/10/1 12/7/1
f 13/6/1 14/9/1 15/10/1 16/7/1
f 17/6/1 18/9/1 19/10/1 20/7/1
f 21/6/1 22/9/1 23/10/1 24/7/1
f 25/6/1 26/9/1 27/10/1 28/7/1
f 29/6/1 30/9/1 31/10/1 32/7/1
f 33/11/1 34/5/1 35/8/1 36/12/1
f 37/1/1 38/2/1 39/3/1 40/4/1
f 41/1/1 42/2/1 43/3/1 44/4/1
f 45/1/1 46/2/1 47/3/1 48/4/1
f 49/1/1 50/2/1 51/3/1 52/4/1
f 53/1/1 54/2/1 55/3/1 56/4/1
f 57/1/1 58/2/1 59/3/1 60/4/1
f 61/1/1 62/2/1 63/3/1 64/4/1
f 65/5/1 66/6/1 67/7/1 68/8/1
f 69/6/1 70/9/1 71/10/1 72/7/1
f 73/6/1 74/9/1 75/10/1 76/7/1
f 77/6/1 78/9/1 79/10/1 80/7/1
f 81/6/1 82/9/1 83/10/1 84/7/1
f 85/6/1 86/9/1 87/10/1 88/7/1
f 89/6/1 90/9/1 91/10/1 92/7/1
f 93/6/1 94/9/1 95/10/1 96/7/1
f 97/6/1 98/9/1 99/10/1 100/7/1
f 101/6/1 102/9/1 103/10/1 104/7/1
f 105/11/1 106/5/1 107/8/1 108/12/1
f 109/1/1 110/2/1 111/3/1 112/4/1
f 113/1/1 114/2/1 115/3/1 116/4/1
f 117/1/1 118/2/1 119/3/1 120/4/1
f 121/1/1 122/2/1 123/3/1 124/4/1
f 125/5/1 126/6/1 127/7/1 128/8/1
f 129/13/1 130/14/1 131/15/1 132/16/1
f 133/6/1 134/9/1 135/10/1 136/7/1
f 137/6/1 138/9/1 139/10/1 140/7/1
f 141/11/1 142/5/1 143/8/1 144/12/1
f 145/1/1 146/2/1 147/3/1 148/4/1
f 149/1/1 150/2/1 151/3/1 152/4/1
f 153/5/1 154/6/1 155/7/1 156/8/1
f 157/6/1 158/9/1 159/10/1 160/7/1
f 161/14/1 162/17/1 163/18/1 164/15/1
f 165/13/1 166/14/1 167/15/1 168/16/1
f 169/6/1 170/9/1 171/10/1 172/7/1
f 173/6/1 174/9/1 175/10/1 176/7/1
f 177/11/1 178/5/1 179/8/1 180/12/1
f 181/5/1 182/6/1 183/7/1 184/8/1
f 185/14/1 186/17/1 187/18/1 188/15/1
f 189/13/1 190/14/1 191/15/1 192/16/1
f 193/6/1 194/9/1 195/10/1 196/7/1
f 197/6/1 198/9/1 199/10/1 200/7/1
f 201/14/1 202/17/1 203/18/1 204/15/1
f 205/10/1 206/19/1 207/17/1 208/14/1
f 209/19/1 210/20/1 211/21/1 212/17/1
f 213/10/1 214/19/1 215/17/1 216/14/1
f 217/19/1 218/20/1 219/21/1 220/17/1
f 221/10/1 222/19/1 223/17/1 224/14/1
f 225/22/1 226/16/1 227/23/1 228/24/1
f 229/15/1 230/18/1 231/25/1 232/26/1
f 233/10/1 234/19/1 235/17/1 236/14/1
f 237/1/1 238/2/1 239/3/1 240/4/1
f 241/19/1 242/20/1 243/21/1 244/17/1
f 245/16/1 246/15/1 247/26/1 248/23/1
f 249/2/1 250/22/1 251/24/1 252/3/1
f 253/1/1 254/2/1 255/3/1 256/4/1
f 257/19/1 258/20/1 259/21/1 260/17/1
f 261/10/1 262/19/1 263/17/1 264/14/1
f 265/1/1 266/2/1 267/3/1 268/4/1
f 269/1/1 270/2/1 271/3/1 272/4/1
f 273/19/1 274/20/1 275/21/1 276/17/1
f 277/13/1 278/14/1 279/15/1 280/16/1
f 281/11/1 282/5/1 283/8/1 284/12/1
f 285/1/1 286/2/1 287/3/1 288/4/1
f 289/19/1 290/20/1 291/21/1 292/17/1
f 293/13/1 294/14/1 295/15/1 296/16/1
f 297/5/1 298/6/1 299/7/1 300/8/1
f 301/14/1 302/17/1 303/18/1 304/15/1
f 305/19/1 306/20/1 307/21/1 308/17/1
f 309/16/1 310/15/1 311/26/1 312/23/1
f 313/19/1 314/20/1 315/21/1 316/17/1
f 317/10/1 318/19/1 319/17/1 320/14/1
f 321/19/1 322/20/1 323/21/1 324/17/1
f 325/16/1 326/15/1 327/26/1 328/23/1
f 329/2/1 330/22/1 331/24/1 332/3/1
f 333/19/1 334/20/1 335/21/1 336/17/1
f 337/16/1 338/15/1 339/26/1 340/23/1
f 341/7/1 342/10/1 343/14/1 344/13/1
f 345/2/1 346/22/1 347/24/1 348/3/1
f 349/1/1 350/2/1 351/3/1 352/4/1
f 353/14/1 354/17/1 355/18/1 356/15/1
f 357/10/1 358/19/1 359/17/1 360/14/1
f 361/1/1 362/2/1 363/3/1 364/4/1
f 365/1/1 366/2/1 367/3/1 368/4/1
f 369/1/1 370/2/1 371/3/1 372/4/1
f 373/13/1 374/14/1 375/15/1 376/16/1
f 377/11/1 378/5/1 379/8/1 380/12/1
f 381/1/1 382/2/1 383/3/1 384/4/1
f 385/1/1 386/2/1 387/3/1 388/4/1
f 389/15/1 390/18/1 391/25/1 392/26/1
f 393/13/1 394/14/1 395/15/1 396/16/1
f 397/11/1 398/5/1 399/8/1 400/12/1
f 401/1/1 402/2/1 403/3/1 404/4/1
f 405/22/1 406/16/1 407/23/1 408/24/1
f 409/15/1 410/18/1 411/25/1 412/26/1
f 413/10/1 414/19/1 415/17/1 416/14/1
f 417/1/1 418/2/1 419/3/1 420/4/1
f 421/1/1 422/2/1 423/3/1 424/4/1
f 425/19/1 426/20/1 427/21/1 428/17/1
f 429/13/1 430/14/1 431/15/1 432/16/1
f 433/11/1 434/5/1 435/8/1 436/12/1
f 437/1/1 438/2/1 439/3/1 440/4/1
f 441/19/1 442/20/1 443/21/1 444/17/1
f 445/13/1 446/14/1 447/15/1 448/16/1
f 449/1/1 450/2/1 451/3/1 452/4/1
f 453/19/1 454/20/1 455/21/1 456/17/1
f 457/1/1 458/2/1 459/3/1 460/4/1
f 461/19/1 462/20/1 463/21/1 464/17/1
f 465/1/1 466/2/1 467/3/1 468/4/1
f 469/19/1 470/20/1 471/21/1 472/17/1
f 473/27/1 474/28/1 475/29/1 476/30/1
f 477/31/1 478/13/1 479/16/1 480/22/1
f 481/1/1 482/2/1 483/3/1 484/4/1
f 485/19/1 486/20/1 487/21/1 488/17/1
f 489/1/1 490/2/1 491/3/1 492/4/1
f 493/19/1 494/20/1 495/21/1 496/17/1
f 497/1/1 498/2/1 499/3/1 500/4/1
f 501/19/1 502/20/1 503/21/1 504/17/1
f 505/16/1 506/15/1 507/26/1 508/23/1
f 509/7/1 510/10/1 511/14/1 512/13/1
f 513/15/1 514/18/1 515/25/1 516/26/1
f 517/32/1 518/33/1 519/34/1 520/35/1
f 521/27/1 522/28/1 523/29/1 524/30/1
f 525/31/1 526/13/1 527/16/1 528/22/1
f 529/1/1 530/2/1 531/3/1 532/4/1
f 533/22/1 534/16/1 535/23/1 536/24/1
f 537/15/1 538/18/1 539/25/1 540/26/1
f 541/10/1 542/19/1 543/17/1 544/14/1
f 545/1/1 546/2/1 547/3/1 548/4/1
f 549/19/1 550/20/1 551/21/1 552/17/1
f 553/1/1 554/2/1 555/3/1 556/4/1
f 557/1/1 558/2/1 559/3/1 560/4/1
f 561/19/1 562/20/1 563/21/1 564/17/1
f 565/10/1 566/19/1 567/17/1 568/14/1
f 569/1/1 570/2/1 571/3/1 572/4/1
f 573/19/1 574/20/1 575/21/1 576/17/1
f 577/33/1 578/36/1 579/37/1 580/34/1
f 581/1/1 582/2/1 583/3/1 584/4/1
f 585/1/1 586/2/1 587/3/1 588/4/1
f 589/19/1 590/20/1 591/21/1 592/17/1
f 593/10/1 594/19/1 595/17/1 596/14/1
f 597/1/1 598/2/1 599/3/1 600/4/1
f 601/22/1 602/16/1 603/23/1 604/24/1
f 605/15/1 606/18/1 607/25/1 608/26/1
f 609/36/1 610/38/1 611/39/1 612/37/1
f 613/40/1 614/32/1 615/35/1 616/41/1

