# Tiled2Unity generated file. Do not modify by hand.
# Wavefront file for 'Cueva_mesh_0003.obj'

# Vertices (Count = 144)
v -9 -6 0
v -10 -6 0
v -10 -5 0
v -9 -5 0
v -10 -6 0
v -11 -6 0
v -11 -5 0
v -10 -5 0
v -11 -6 0
v -12 -6 0
v -12 -5 0
v -11 -5 0
v -12 -6 0
v -13 -6 0
v -13 -5 0
v -12 -5 0
v -13 -6 0
v -14 -6 0
v -14 -5 0
v -13 -5 0
v -9 -7 0
v -10 -7 0
v -10 -6 0
v -9 -6 0
v -10 -7 0
v -11 -7 0
v -11 -6 0
v -10 -6 0
v -11 -7 0
v -12 -7 0
v -12 -6 0
v -11 -6 0
v -12 -7 0
v -13 -7 0
v -13 -6 0
v -12 -6 0
v -13 -7 0
v -14 -7 0
v -14 -6 0
v -13 -6 0
v -9 -8 0
v -10 -8 0
v -10 -7 0
v -9 -7 0
v -10 -8 0
v -11 -8 0
v -11 -7 0
v -10 -7 0
v -11 -8 0
v -12 -8 0
v -12 -7 0
v -11 -7 0
v -12 -8 0
v -13 -8 0
v -13 -7 0
v -12 -7 0
v -13 -8 0
v -14 -8 0
v -14 -7 0
v -13 -7 0
v -9 -9 0
v -10 -9 0
v -10 -8 0
v -9 -8 0
v -10 -9 0
v -11 -9 0
v -11 -8 0
v -10 -8 0
v -11 -9 0
v -12 -9 0
v -12 -8 0
v -11 -8 0
v -12 -9 0
v -13 -9 0
v -13 -8 0
v -12 -8 0
v -13 -9 0
v -14 -9 0
v -14 -8 0
v -13 -8 0
v -2 -10 0
v -3 -10 0
v -3 -9 0
v -2 -9 0
v -8 -10 0
v -9 -10 0
v -9 -9 0
v -8 -9 0
v -9 -10 0
v -10 -10 0
v -10 -9 0
v -9 -9 0
v -10 -10 0
v -11 -10 0
v -11 -9 0
v -10 -9 0
v -11 -10 0
v -12 -10 0
v -12 -9 0
v -11 -9 0
v -12 -10 0
v -13 -10 0
v -13 -9 0
v -12 -9 0
v -13 -10 0
v -14 -10 0
v -14 -9 0
v -13 -9 0
v -8 -11 0
v -9 -11 0
v -9 -10 0
v -8 -10 0
v -6 -12 0
v -7 -12 0
v -7 -11 0
v -6 -11 0
v -2 -13 0
v -3 -13 0
v -3 -12 0
v -2 -12 0
v -11 -16 0
v -12 -16 0
v -12 -15 0
v -11 -15 0
v -15 -30 0
v -16 -30 0
v -16 -29 0
v -15 -29 0
v -16 -30 0
v -17 -30 0
v -17 -29 0
v -16 -29 0
v -17 -30 0
v -18 -30 0
v -18 -29 0
v -17 -29 0
v -18 -30 0
v -19 -30 0
v -19 -29 0
v -18 -29 0
v -19 -30 0
v -20 -30 0
v -20 -29 0
v -19 -29 0

# Texture cooridinates (Count = 58)
vt 0.15 0.9722222
vt 0.175 0.9722222
vt 0.175 1
vt 0.15 1
vt 0.2 0.9722222
vt 0.2 1
vt 0.225 0.9722222
vt 0.225 1
vt 0.25 0.9722222
vt 0.25 1
vt 0.275 0.9722222
vt 0.275 1
vt 0.15 0.9444444
vt 0.175 0.9444444
vt 0.2 0.9444444
vt 0.225 0.9444444
vt 0.25 0.9444444
vt 0.275 0.9444444
vt 0.15 0.9166667
vt 0.175 0.9166667
vt 0.2 0.9166667
vt 0.225 0.9166667
vt 0.25 0.9166667
vt 0.275 0.9166667
vt 0.15 0.8888889
vt 0.175 0.8888889
vt 0.2 0.8888889
vt 0.225 0.8888889
vt 0.25 0.8888889
vt 0.275 0.8888889
vt 0.075 0.6666666
vt 0.1 0.6666666
vt 0.1 0.6944444
vt 0.075 0.6944444
vt 0.65 0.4166667
vt 0.675 0.4166667
vt 0.675 0.4444444
vt 0.65 0.4444444
vt 0.15 0.8611111
vt 0.175 0.8611111
vt 0.2 0.8611111
vt 0.225 0.8611111
vt 0.25 0.8611111
vt 0.275 0.8611111
vt 0.65 0.3888889
vt 0.675 0.3888889
vt 0 0.75
vt 0.025 0.75
vt 0.025 0.7777778
vt 0 0.7777778
vt 0.05 0.75
vt 0.05 0.7777778
vt 0.45 0.75
vt 0.475 0.75
vt 0.475 0.7777778
vt 0.45 0.7777778
vt 0.5 0.75
vt 0.5 0.7777778

# Normal
vn 0 0 -1

# Mesh description
g Cueva_mesh_0003

# Faces
f 1/1/1 2/2/1 3/3/1 4/4/1
f 5/2/1 6/5/1 7/6/1 8/3/1
f 9/5/1 10/7/1 11/8/1 12/6/1
f 13/7/1 14/9/1 15/10/1 16/8/1
f 17/9/1 18/11/1 19/12/1 20/10/1
f 21/13/1 22/14/1 23/2/1 24/1/1
f 25/14/1 26/15/1 27/5/1 28/2/1
f 29/15/1 30/16/1 31/7/1 32/5/1
f 33/16/1 34/17/1 35/9/1 36/7/1
f 37/17/1 38/18/1 39/11/1 40/9/1
f 41/19/1 42/20/1 43/14/1 44/13/1
f 45/20/1 46/21/1 47/15/1 48/14/1
f 49/21/1 50/22/1 51/16/1 52/15/1
f 53/22/1 54/23/1 55/17/1 56/16/1
f 57/23/1 58/24/1 59/18/1 60/17/1
f 61/25/1 62/26/1 63/20/1 64/19/1
f 65/26/1 66/27/1 67/21/1 68/20/1
f 69/27/1 70/28/1 71/22/1 72/21/1
f 73/28/1 74/29/1 75/23/1 76/22/1
f 77/29/1 78/30/1 79/24/1 80/23/1
f 81/31/1 82/32/1 83/33/1 84/34/1
f 85/35/1 86/36/1 87/37/1 88/38/1
f 89/39/1 90/40/1 91/26/1 92/25/1
f 93/40/1 94/41/1 95/27/1 96/26/1
f 97/41/1 98/42/1 99/28/1 100/27/1
f 101/42/1 102/43/1 103/29/1 104/28/1
f 105/43/1 106/44/1 107/30/1 108/29/1
f 109/45/1 110/46/1 111/36/1 112/35/1
f 113/31/1 114/32/1 115/33/1 116/34/1
f 117/47/1 118/48/1 119/49/1 120/50/1
f 121/48/1 122/51/1 123/52/1 124/49/1
f 125/53/1 126/54/1 127/55/1 128/56/1
f 129/53/1 130/54/1 131/55/1 132/56/1
f 133/53/1 134/54/1 135/55/1 136/56/1
f 137/53/1 138/54/1 139/55/1 140/56/1
f 141/54/1 142/57/1 143/58/1 144/55/1

